<svg xmlns="http://www.w3.org/2000/svg" xmlns:xlink="http://www.w3.org/1999/xlink" aria-hidden="true" overflow="hidden" style="position:absolute;width:0;height:0">
  <defs>
    <symbol id="icon-checkbox-active" viewBox="0 0 32 32">
      <use xlink:href="#reuse-0" stroke-width="2"/>
      <path fill="var(--color1, #839aa9)" d="M8.546 15.841c2.23 2.412 4.392 4.584 6.47 7.331 2.259-4.494 4.572-9.003 8.387-13.887l-1.028-.471c-3.222 3.417-5.725 6.651-7.9 10.495-1.512-1.363-3.957-3.291-5.449-4.281z"/>
    </symbol>
    <symbol id="icon-basket" viewBox="0 0 32 32">
      <path fill="var(--color3, #ff9f0e)" d="M1.5 12.8h29v-2.133h-29zm28.367-.634v.937H32v-.937zm-3.444 17.701H5.576V32h20.847zM2.133 13.103v-.937H0v.937zm4.045 17.135a38.3 38.3 0 0 1-4.045-17.135H0a40.4 40.4 0 0 0 4.271 18.091zm-.601-.371c.256 0 .489.145.602.371l-1.907.956A1.46 1.46 0 0 0 5.577 32zm20.245.371a.67.67 0 0 1 .602-.371V32c.555 0 1.058-.312 1.306-.806zm4.045-17.135a38.35 38.35 0 0 1-4.045 17.135l1.907.956A40.45 40.45 0 0 0 32 13.103zm.633-.303a.634.634 0 0 1-.634-.634h2.133a1.5 1.5 0 0 0-1.499-1.499zm-29-2.133a1.5 1.5 0 0 0-1.499 1.499h2.133a.634.634 0 0 1-.634.634zm6.882 1.615 6.4-10.667L12.95.518l-6.4 10.667zm8.836-10.667 6.4 10.667 1.83-1.096-6.4-10.667-1.83 1.097zm-6.551 19.718h10.667V19.2H10.667z"/>
    </symbol>
    <symbol id="icon-bg-paw" viewBox="0 0 33 32">
      <path fill="var(--color5, #fffaf3)" d="M17.231 16.5c1.808 2.111.588 4.231.65 7.651.068 4.976-2.525 6.534-4.48 5.216-1.927-1.247-1.594-4.376-3.325-6.106-1.624-1.852-4.603-1.724-5.71-3.852-1.078-2.057.628-4.437 5.538-3.978 3.283.329 5.383-.991 7.327 1.069M22.9 19.884c-2.525.211-4.3 1.802-4.104 3.442s2.635 2.717 5.131 2.436c2.525-.211 4.329-1.732 4.104-3.442s-2.606-2.647-5.131-2.436M13.87 10.218c-.32 2.518-1.844 4.133-3.433 3.735s-2.636-2.959-2.222-5.43c.32-2.518 1.844-4.133 3.433-3.735s2.636 2.959 2.222 5.43M22.55 12.041c-2.257 1.437-3.491 3.714-2.518 5.298s3.632 1.684 5.888.246c2.257-1.437 3.491-3.714 2.518-5.298s-3.631-1.684-5.888-.246M22.218 10.984c-1.496 2.123-3.738 2.772-5.116 1.642s-1.134-3.73.362-5.852 3.738-2.772 5.116-1.642 1.134 3.73-.362 5.852"/>
    </symbol>
    <symbol id="icon-arrow" viewBox="0 0 41 32">
      <path fill="var(--color2, #fcb62a)" d="M8.173 25.125c1.281-8.416 8.275-15.263 15.398-15.252.042.215.135.486.067.694-1.148 3.54.383 6.288 2.864 8.723 1.91 1.922 4.115 3.49 6.752 4.288.755.205 1.509.411 2.328.461 2.999.236 4.577-1.366 4.427-4.295-.099-1.97-.984-3.617-2.207-5.126-2.086-2.623-4.815-4.595-8.019-5.959-.642-.252-1.284-.503-2.193-.877 3.11-3.367 7.32-4.119 11.348-5.465-.71-.043-1.413-.193-2.129-.13-3.706.57-7.171 1.685-9.953 4.17-.809.694-1.552 1.179-2.753 1.106-4.643-.231-8.533 1.549-11.794 4.695a24 24 0 0 0-5.597 8.206A70 70 0 0 1 5.5 23.157c-1.495-2.427-2.792-4.524-4.088-6.621-.167.043-.337.139-.504.182-.08.42-.277.939-.135 1.319.654 1.845 1.309 3.69 2.075 5.489.722 1.637 1.556 3.227 2.278 4.864.725 1.584 1.576 2.008 2.691.802 1.934-2.059 3.659-4.289 5.439-6.517.238-.304.055-.899.029-1.379-.552.072-1.259-.024-1.606.273-1.217 1.094-2.22 2.254-3.505 3.555zM25.815 9.903c5.295 1.226 9.295 3.913 11.689 8.678.484 1.038.844 2.335-.188 3.068-.687.489-2.004.515-2.926.352-3.516-.746-6.129-2.817-8.264-5.549-1.47-1.948-1.838-3.988-.312-6.549z"/>
    </symbol>
    <symbol id="icon-hero-paw" viewBox="0 0 32 32">
      <path d="M15.062 15.601c1.657 2.266 4.052 1.189 7.373 1.886 4.85.933 6.756-1.437 5.865-3.741-.863-2.209-3.895-2.275-5.378-4.286s-.688-5.165-2.499-6.657-4.533-.206-5.022 4.921c-.298 3.513-1.907 5.581-.339 7.875zM17.637 22.272c.701-2.482 2.596-4.217 4.114-3.677s2.254 2.972 1.493 5.576c-.701 2.482-2.596 4.217-4.114 3.677s-2.166-3.001-1.493-5.576M9.682 11.194c2.507.016 4.475-1.432 4.434-3.159s-2.098-3.116-4.577-3.039C7.032 4.98 5.064 6.428 5.105 8.155c.013 1.634 2.069 3.023 4.577 3.039M9.878 20.409c1.877-2.02 4.445-2.74 5.709-1.523s.783 3.905-1.093 5.925c-1.877 2.02-4.445 2.74-5.709 1.523-1.173-1.246-.755-3.813 1.093-5.925M9.143 19.082c2.405-1.273 3.814-3.534 3.014-5.19-.772-1.564-3.348-1.846-5.845-.544-2.405 1.273-3.814 3.534-3.014 5.19.772 1.564 3.439 1.817 5.845.544"/>
    </symbol>
    <symbol id="icon-black-dog-bg" viewBox="0 0 31 32">
      <path fill="var(--color3, #ff9f0e)" d="M15.812.002c4.396-.115 7.526 3.934 10.428 7.245 2.652 3.026 4.805 6.431 5.077 10.448.293 4.318-.364 9.057-3.557 11.971-3.111 2.839-7.744 2.378-11.948 2.178-3.927-.186-7.937-.635-10.868-3.26-3.083-2.761-5.124-6.75-4.931-10.89.186-3.997 3.239-6.936 5.901-9.918C8.82 4.522 11.455.114 15.812.001z"/>
    </symbol>
    <symbol id="icon-black-dog-bg-paws" viewBox="0 0 37 32">
      <path fill="var(--color6, #fff)" d="M18.918.771c-.133-.057-.222.043-.396.094-.253.075-.291.227-.199.305s.241.005.355.066c.116.054.147.213.268.233.119.024.223-.1.132-.339-.062-.158-.033-.29-.159-.359zM18.629.499c.016.137-.038.262-.118.279-.085.017-.166-.08-.181-.217s.038-.262.118-.279c.085-.017.166.08.181.217M19.273.821c-.121.065-.185.178-.148.254s.165.088.286.023.185-.178.148-.254c-.041-.076-.169-.089-.286-.023M19.04.421c-.04.14-.148.232-.233.207s-.122-.16-.081-.3.148-.232.233-.207.122.16.081.3M19.124.444c-.084.11-.091.238-.023.288.072.05.195.004.277-.102.084-.11.091-.238.023-.288-.067-.054-.194-.008-.277.102M3.377 17.786c-.143.026-.161.159-.279.297-.169.202-.118.35.002.365s.203-.129.333-.141c.127-.02.24.096.352.046.113-.046.131-.206-.077-.355-.14-.097-.188-.224-.331-.212M2.985 17.72c.089.105.113.239.056.298-.061.061-.182.024-.271-.081s-.113-.239-.056-.298c.061-.061.182-.024.271.081M3.7 17.632c-.065.121-.056.251.017.293s.186-.018.251-.139.056-.251-.017-.293c-.077-.041-.19.02-.251.139M3.285 17.428c.044.139.005.275-.08.302s-.19-.066-.233-.205-.005-.275.08-.302.19.066.233.205M3.367 17.401c-.009.138.056.249.14.252.088.002.165-.104.175-.238.009-.138-.056-.249-.14-.252-.086-.007-.166.1-.175.238M33.55 23.558c-.143.026-.161.159-.279.297-.169.202-.118.35.002.365s.203-.129.333-.141c.127-.02.24.096.352.046.113-.046.131-.206-.077-.355-.14-.097-.188-.224-.331-.212M33.159 23.492c.089.105.113.239.056.298-.061.061-.182.024-.271-.081s-.113-.239-.056-.298c.061-.061.182-.024.271.081M33.874 23.404c-.065.121-.056.251.017.293s.186-.018.251-.139.056-.251-.017-.293c-.077-.041-.19.02-.251.139M33.458 23.199c.044.139.005.275-.08.302s-.19-.066-.233-.205-.005-.275.08-.302.19.066.233.205M33.541 23.172c-.009.138.056.249.14.252.088.002.165-.104.175-.238.009-.138-.056-.249-.14-.252-.086-.007-.166.1-.175.238M24.783 5.512c-.143.026-.161.159-.279.297-.169.202-.118.35.002.365s.203-.129.333-.141c.127-.02.24.096.352.046.113-.046.131-.206-.077-.355-.14-.097-.188-.224-.331-.212M24.392 5.446c.089.105.113.239.056.298-.061.061-.182.024-.271-.081s-.113-.239-.056-.298c.061-.061.182-.024.271.081M25.107 5.358c-.065.121-.056.251.017.293s.186-.018.251-.139.056-.251-.017-.293c-.077-.041-.19.019-.251.139M24.691 5.154c.044.139.005.275-.08.302s-.19-.066-.233-.205-.005-.275.08-.302.19.066.233.205M24.774 5.127c-.009.138.056.249.14.252.088.002.165-.104.175-.238.009-.138-.056-.249-.14-.252-.086-.008-.166.1-.175.238"/>
      <path fill="var(--color6, #fff)" d="M4.758 24.134c-.946-.672-1.808-.032-3.256.07-2.101.167-2.659 1.289-2.07 2.055s1.877.439 2.668 1.112c.82.613.795 1.912 1.705 2.268.895.386 1.91-.407 1.596-2.429-.225-1.342.226-2.328-.643-3.076M2.945 21.527c-.106 1.096-.731 1.985-1.392 1.989-.69-.011-1.161-.905-1.055-2.001s.731-1.985 1.392-1.989c.69.011 1.161.905 1.055 2.001M7.45 25.12c-1.057.303-1.748 1.085-1.581 1.737s1.145.962 2.202.659 1.748-1.085 1.581-1.737c-.197-.667-1.175-.977-2.201-.659zM6.293 21.6c-.549 1.027-1.542 1.57-2.173 1.233s-.684-1.454-.136-2.481c.549-1.027 1.542-1.57 2.173-1.233s.684 1.454.136 2.481M6.91 21.92c-.838.721-1.109 1.711-.658 2.212.481.516 1.518.358 2.341-.334.838-.721 1.109-1.711.658-2.212-.436-.531-1.503-.387-2.341.334M30.916 12.809c.946-.672 1.808-.032 3.256.07 2.101.167 2.659 1.289 2.07 2.055s-1.877.439-2.668 1.112c-.821.613-.795 1.912-1.705 2.268-.895.386-1.91-.407-1.596-2.429.225-1.342-.226-2.328.643-3.076M32.729 10.203c.106 1.096.731 1.985 1.392 1.989.69-.011 1.161-.905 1.055-2.001s-.731-1.985-1.392-1.989c-.69.011-1.161.905-1.055 2.001M28.224 13.795c1.057.303 1.748 1.085 1.581 1.737s-1.145.962-2.202.659-1.748-1.085-1.581-1.737c.197-.667 1.175-.977 2.201-.659zM29.381 10.276c.549 1.027 1.542 1.57 2.173 1.233s.684-1.454.136-2.481c-.549-1.027-1.542-1.57-2.173-1.233s-.684 1.454-.136 2.481M28.764 10.595c.838.721 1.109 1.711.658 2.212-.481.516-1.518.358-2.341-.334-.838-.721-1.109-1.711-.658-2.212.436-.531 1.503-.387 2.341.334" opacity=".96"/>
      <path fill="var(--color6, #fff)" d="M5.069 31.134c-.145.013-.175.144-.304.27-.186.186-.149.338-.031.363s.214-.11.344-.11c.128-.008.231.118.346.078.116-.036.149-.194-.045-.36-.13-.11-.167-.24-.31-.241M4.686 31.032c.079.113.091.248.029.302-.067.055-.184.008-.263-.105s-.091-.248-.029-.302c.067-.055.184-.008.263.105M5.406 31.009c-.076.114-.078.245-.01.293s.187-.001.263-.116c.076-.114.078-.245.01-.293-.073-.047-.191.002-.263.116M5.01 30.768c.031.142-.02.274-.107.293s-.183-.083-.214-.225.02-.274.107-.293.183.083.214.225M5.095 30.748c-.021.137.033.253.117.264.088.01.173-.089.196-.222.021-.136-.033-.253-.117-.264-.085-.015-.174.085-.196.222M3.797 14.122c-.065-.047-.126-.003-.226.003-.146.01-.186.088-.145.141s.13.032.184.079c.057.043.054.133.117.159.062.027.133-.027.113-.167-.015-.093.017-.161-.042-.214zM3.673 13.94c-.008.076-.052.137-.098.137-.048-.001-.08-.064-.072-.14s.052-.137.098-.137c.048.001.08.064.072.14M3.984 14.193c-.074.02-.122.074-.111.119s.079.068.152.047c.074-.02.122-.074.111-.12-.013-.046-.081-.069-.152-.047zM3.906 13.947c-.039.071-.108.108-.152.084s-.046-.101-.008-.172c.039-.071.108-.108.152-.084s.046.101.008.172M3.949 13.97c-.059.05-.078.118-.047.153.033.036.105.026.163-.022.059-.049.078-.118.047-.153-.03-.037-.104-.028-.163.021zM24.166 1.206c-.065-.047-.126-.004-.226.003-.146.01-.186.088-.145.141s.13.032.184.079c.057.043.054.133.117.159.062.027.133-.027.113-.167-.015-.093.017-.161-.042-.214zM24.042 1.024c-.008.076-.052.137-.098.137-.048-.001-.08-.064-.072-.14s.052-.137.098-.137c.048.001.08.064.072.14M24.352 1.276c-.074.02-.122.074-.111.119s.079.068.152.047c.074-.02.122-.074.111-.119-.013-.046-.081-.069-.152-.047M24.274 1.031c-.039.071-.108.108-.152.084s-.046-.101-.008-.172c.039-.071.108-.108.152-.084s.046.101.008.172M24.317 1.054c-.059.049-.078.118-.047.153.033.036.105.026.163-.022.059-.049.078-.118.047-.153-.03-.037-.104-.028-.163.022M2.461 23.857c-.08.007-.097.08-.169.151-.103.104-.082.188-.016.202s.119-.062.191-.062c.071-.005.128.065.192.043.065-.02.082-.108-.025-.2-.072-.061-.093-.133-.173-.133zM2.247 23.801c.044.063.051.138.016.168-.037.031-.102.005-.146-.058s-.051-.138-.016-.168c.037-.031.102-.005.146.058M2.647 23.787c-.042.064-.043.136-.005.163s.104-.001.146-.065.043-.136.005-.163c-.041-.026-.106.002-.146.065M2.427 23.654c.017.079-.01.152-.059.163s-.102-.046-.119-.125.01-.152.059-.163.102.046.119.125M2.474 23.643c-.012.076.019.14.065.146.049.005.096-.05.108-.123.012-.076-.019-.14-.065-.146-.047-.008-.097.047-.108.123M35.366 28.474c.08.007.097.08.169.151.103.104.082.188.016.202s-.119-.062-.191-.062c-.071-.005-.128.065-.192.043-.065-.02-.082-.108.026-.2.072-.061.093-.133.173-.133zM35.579 28.419c-.044.063-.051.138-.016.168.037.031.102.005.146-.058s.051-.138.016-.168c-.037-.031-.102-.005-.146.058M35.179 28.405c.042.064.043.136.005.163s-.104-.001-.146-.065-.043-.136-.005-.163c.041-.026.106.002.146.065M35.399 28.271c-.017.079.01.152.059.163s.102-.046.119-.125-.01-.152-.059-.163-.102.046-.119.125M35.352 28.26c.012.076-.019.14-.065.146-.049.006-.096-.05-.108-.123-.012-.076.019-.14.065-.146.047-.008.097.047.108.123M14.662 3.473c-.08.009-.095.082-.165.155-.101.106-.078.19-.012.202s.117-.064.189-.066c.071-.006.13.062.193.038.064-.022.08-.11-.03-.2-.074-.059-.096-.131-.176-.129zM14.447 3.423c.045.062.054.136.02.167-.036.031-.102.007-.147-.054s-.054-.137-.02-.167c.036-.031.102-.007.147.054M14.846 3.399c-.041.065-.04.137-.001.163s.104-.003.144-.068c.041-.065.04-.137.001-.163-.041-.025-.106.004-.144.068M14.623 3.271c.019.079-.007.153-.055.164s-.103-.043-.122-.122.007-.153.055-.164.103.043.122.122M14.67 3.259c-.01.076.022.14.069.145.049.004.095-.052.105-.126.01-.076-.022-.14-.069-.145-.047-.007-.096.05-.105.126M36.258 18.165c-.128.068-.105.2-.175.367-.099.244-.005.369.113.347s.154-.185.274-.235c.114-.057.258.019.349-.063.093-.078.062-.236-.182-.315-.162-.05-.247-.156-.38-.101zM35.865 18.221c.116.073.181.193.144.267-.04.076-.166.079-.283.005s-.181-.193-.144-.267c.04-.076.166-.079.283-.005M36.519 17.92c-.026.135.023.256.105.274s.172-.074.197-.209-.023-.256-.105-.274c-.085-.015-.175.076-.197.209M36.061 17.851c.084.119.089.26.016.312s-.201-.005-.285-.124-.089-.26-.016-.312.201.005.285.124M36.131 17.8c.033.134.129.22.21.198.085-.025.125-.149.094-.28-.033-.134-.129-.22-.21-.198-.084.019-.128.146-.094.28"/>
    </symbol>
    <symbol id="icon-light-dog-bg" viewBox="0 0 34 32">
      <path fill="var(--color7, #f1f3ff)" d="M1.372 8.296C3.625 5.272 6.298 2.694 8.26 1.475s5.334-1.959 7.599-1.11 5.526 5.867 6.162 6.191 3.971 3.881 5.622 5.576 2.037 7.073-.207 10.469c-2.245 3.397-6.601.983-14.539 6.441s-11.369 2.91-10.819-4.564-4.379-11.25-.705-16.182z"/>
    </symbol>
    <symbol id="icon-bowl" viewBox="0 0 48 32">
      <path fill="var(--color1, #839aa9)" d="M45.37 13.333C45.318 11.341 43.365 9.36 39.452 8c.267-.547 0-.726 0-1.333C39.452 4.311 37.404 2 34.849 2c-.576 0-.778.473-1.315.667-.86-.97-2.435-1.333-3.945-1.333-.684 0-1.354-.232-1.973 0C26.54.443 25.202.001 23.671.001c-2.063 0-4.235 1.21-5.26 2.667-2.426-.265-4.432.263-5.26 2-2.034.036-3.69 1.536-3.945 3.333-4.239 1.378-6.52 3.252-6.575 5.333l-2.63 10v.667c0 4.649 10.871 8 24.329 8s23.671-3.352 23.671-8l-2.63-10.667zM13.151 6c.034 0-.034-.002 0 0h.658v-.667c.521-1.382 2.061-2 3.945-2 .265 0 .383-.041.658 0h.658c.832-1.345 2.721-2.667 4.603-2.667 1.422 0 2.353.473 3.288 1.333l.658.667v-.667c.578-.252 1.308 0 1.973 0 1.378 0 2.617.424 3.288 1.333h.658c.52-.227.747 0 1.315 0 2.09 0 3.945 1.449 3.945 3.333 0 .618-.308.805-.658 1.333v.667c-.027.04.028-.039 0 0v.667h.658c1.651.228 2.63 1.13 2.63 2 0 .523-.316.431-.658.667-.055.038.048-.029 0 0l-1.315.667 1.315.667c.742.345.658.742.658 1.333 0 .881-1.677 2-3.288 2-.735.252-1.197.461-1.973.667-3.297.868-7.208 1.333-11.178 1.333-6.791 0-12.484-1.499-14.466-2-.457-.115-.645.004-.658 0-1.804 0-3.288-1.716-3.288-3.333s1.484-2.667 3.288-2.667c.113 0-.109-.01 0 0h.658v-.667c-.212-.39-.658-.908-.658-1.333 0-.025-.002.025 0 0 .168-1.438 1.617-2.667 3.288-2.667zM9.205 9.333c.002.018-.003-.018 0 0 .004.028-.004-.028 0 0 .025.147-.044-.143 0 0 .001.002-.001-.002 0 0-2.144.129-3.945 1.996-3.945 4 0 2.069 2.361 3.971 4.603 4 .103.029.304-.089.658 0 2.025.512 7.59 2 14.466 2 4.966 0 9.224-.664 13.151-2 1.944-.027 4.603-1.159 4.603-2.667 0-.185.048-.49 0-.667-.143-.529-.799-.962-1.315-1.333.512-.46.658-.755.658-1.333 0-.041.003-.625 0-.667-.002-.035.004.033 0 0-.005-.04.008.039 0 0-.008-.038.01.038 0 0-.002-.009.002.009 0 0 1.58.945 2.63 1.619 2.63 2.667 0 3.18-8.721 6.667-21.041 6.667S3.289 16.513 3.289 13.333c0-1.647 2.224-2.757 5.918-4zm14.466 22C11.173 31.333.747 28.01.657 24l2.63-8.667c2.022 3.392 9.916 6 20.384 6s19.02-2.607 21.041-6L47.342 24c-.09 4.01-11.173 7.333-23.671 7.333"/>
      <path fill="var(--color1, #839aa9)" d="M30.904 24c0-1.13-.88-2-1.973-2-1.057 0-1.921.919-1.973 2h-6.575c-.052-1.081-.915-2-1.973-2-1.091 0-1.973.87-1.973 2 0 .659.189.959.658 1.333-.468.375-.658 1.342-.658 2 0 1.13.881 2 1.973 2 1.058 0 1.921-.919 1.973-2h6.575c.052 1.081.916 2 1.973 2 1.092 0 1.973-.87 1.973-2 0-.658-.19-1.625-.658-2 .467-.375.658-.674.658-1.333m-.657 3.333c0 .658-.679 1.333-1.315 1.333s-1.315-.675-1.315-1.333c0-.079-.016.079 0 0v-.667h-7.89v.667c.016.079 0-.079 0 0 0 .658-.679 1.333-1.315 1.333s-1.315-.675-1.315-1.333S17.776 26 18.412 26v-.667c-.636 0-1.315-.677-1.315-1.333 0-.658.679-1.333 1.315-1.333s1.315.675 1.315 1.333c0 .08.016-.079 0 0v.667h7.89V24c-.016-.08 0 .079 0 0 0-.658.68-1.333 1.315-1.333.636 0 1.315.675 1.315 1.333s-.679 1.333-1.315 1.333V26c.637-.001 1.315.676 1.315 1.333"/>
    </symbol>
    <symbol id="icon-play-video" viewBox="0 0 32 32">
      <path fill="var(--color6, #fff)" d="M22.809 15.271c-.019.197-.138.412-.414.631l-8.109 6.434c-.577.458-1.947.565-1.947-.513V9.917c0-.975 1.47-1.215 2.058-.818l8.109 5.472c.31.209.377.459.302.7zM32 18.654C31.143 39.195-3.471 34.94.285 13.317 1.861 4.244 9.395-.528 17.673.047c9.318.647 14.158 9.123 14.326 18.471 0 .024-.015.043-.018.066.003.025.02.042.019.07m-1.737.266c-.141-6.617-2.487-13.763-8.542-16.608-8.024-3.77-17.479.676-19.518 9.838-1.824 8.194 2.232 15.459 9.654 18.087 7.911 2.801 17.973-1.607 18.406-11.318z"/>
    </symbol>
    <symbol id="icon-light-dog-paw" viewBox="0 0 36 32">
      <path fill="var(--color1, #839aa9)" d="M16.631 15.867c-2.767.53-3.034 2.897-5.217 5.417-3.158 3.678-2.012 6.24.379 6.388 2.323.184 3.906-2.411 6.373-2.701 2.457-.444 4.755 1.502 6.969.553 2.147-.912 2.423-3.681-1.801-6.182-2.839-1.655-3.859-3.888-6.703-3.475M10.003 15.074c1.914 1.643 2.394 3.893 1.21 5.013s-3.786.655-5.633-1.025c-1.914-1.643-2.462-3.856-1.21-5.013s3.719-.618 5.632 1.025zM23.372 13.016c-1.331 2.076-1.116 4.232.414 4.851s3.801-.599 5.026-2.694c1.331-2.076 1.116-4.232-.414-4.851s-3.801.599-5.026 2.694M15.548 9.357c.899 2.375.192 4.794-1.601 5.429s-4.033-.859-4.932-3.233-.192-4.795 1.601-5.429 4.033.859 4.932 3.234zM16.147 8.872c-.109 2.45 1.241 4.35 3.038 4.313s3.317-2.009 3.425-4.459c.109-2.45-1.241-4.35-3.038-4.313s-3.317 2.009-3.425 4.459"/>
    </symbol>
    <symbol id="icon-learn-more-bg" viewBox="0 0 42 32">
      <path fill="var(--color1, #839aa9)" d="M.098 13.567S-1.829 5.72 11.421.951s38.908 9.434 27.705 19.715-17.346 14.203-27.705 9.116S.098 13.568.098 13.568z"/>
    </symbol>
    <symbol id="icon-grooming" viewBox="0 0 32 32">
      <path d="M21.1 9.363c-.085-.371-.316-.65-.633-.765-.023-.008-.047-.009-.07-.016.228-1.036.87-4.801-1.234-7.004C17.944.301 16.042-.204 13.512.074a.4.4 0 0 0-.149-.031c-1.987-.064-3.508.484-4.504 1.626-1.953 2.238-1.246 6.013-1.042 6.908-.03.008-.061.01-.09.02-.318.115-.549.394-.633.765-.076.331-.033.712.118 1.075.278.665.841 1.09 1.381 1.09a1 1 0 0 0 .172-.015c.458 1.357 1.223 2.486 2.487 3.179v1.392h-.656v3.925h7.002v-3.925h-.657V14.7c1.266-.692 2.031-1.824 2.489-3.187q.084.014.17.014c.54 0 1.103-.425 1.381-1.089.151-.363.194-.745.118-1.075zm-13.286.857c-.105-.251-.137-.518-.088-.732.039-.169.125-.289.236-.33a.3.3 0 0 1 .098-.016q.096 0 .205.051c.074.599.179 1.18.326 1.731-.247-.005-.594-.269-.776-.705zm9.498 6.464c-.643.629-1.84 1.052-3.215 1.052s-2.573-.424-3.215-1.052h.694c.178 0 .323-.135.323-.301v-1.392c.63.241 1.362.392 2.215.432.839-.04 1.56-.188 2.182-.425v1.385c0 .166.145.301.323.301zm1.984-7.81q-.03.28-.069.547-.1.679-.258 1.284-.06.227-.13.444c-.396 1.263-1.02 2.247-1.984 2.876a4 4 0 0 1-.454.251c-.633.312-1.384.503-2.289.546-.902-.043-1.653-.23-2.287-.537a4 4 0 0 1-.483-.267c-.966-.63-1.591-1.612-1.988-2.872a9 9 0 0 1-.13-.444 12 12 0 0 1-.327-1.828 22 22 0 0 1-.122-1.556c.076-.441.186-.807.318-1.107a5 5 0 0 0 1.133-.334c.08.102.215.167.353.158a7.5 7.5 0 0 0 2.03-.421.4.4 0 0 0 .009.129.404.404 0 0 0 .389.292c.086.003 1.797.022 2.853-1.101a6.85 6.85 0 0 0 3.187 3.328l.278.357q-.014.129-.03.256zm1.083 1.346c-.182.435-.527.699-.774.704.146-.552.25-1.132.324-1.731a.5.5 0 0 1 .205-.05q.053 0 .098.016c.152.055.213.23.236.33.049.214.016.481-.089.732zm-7.015.782v-.843c0-.166.145-.301.323-.301s.323.135.323.301v.775h.497c.178 0 .323.135.323.301s-.145.301-.323.301h-.57c-.316 0-.573-.239-.573-.533zm-1.545-1.933c0 .323-.282.585-.629.585s-.629-.262-.629-.585.282-.585.629-.585.629.262.629.585m5.814 0c0 .323-.282.585-.629.585s-.629-.262-.629-.585.282-.585.629-.585.629.262.629.585m-1.954 3.785c0 .485-.817.658-1.582.658s-1.582-.173-1.582-.658c0-.166.145-.301.323-.301.144 0 .266.088.308.209.108.06.448.149.951.149s.843-.089.951-.149a.32.32 0 0 1 .308-.209c.178 0 .323.135.323.301m16.212 9.377a.8.8 0 0 0-.409-.331.72.72 0 0 0-.095-.496.8.8 0 0 0-.409-.33c.027-.165 0-.339-.095-.496s-.243-.267-.409-.33a.72.72 0 0 0-.095-.496.82.82 0 0 0-.502-.363.88.88 0 0 0-.63.073l-.328.173a1 1 0 0 0-.246-.252v-.329h1.831c.178 0 .323-.135.323-.301s-.145-.301-.323-.301h-1.831v-.301h1.831c.178 0 .323-.135.323-.301s-.145-.301-.323-.301h-1.831v-.301h1.831c.178 0 .323-.135.323-.301s-.145-.301-.323-.301h-1.831v-.301h1.831c.178 0 .323-.135.323-.301s-.145-.301-.323-.301h-1.831l.002-.301h1.829c.178 0 .323-.135.323-.301s-.145-.301-.323-.301h-1.829c-.364 0-.648.308-.648.701v1.448a1.8 1.8 0 0 0-.404-.98c-.59-.728-1.602-.947-2.253-.489-.34.239-.512.615-.519 1.023-.424-.105-.861-.054-1.2.184-.327.23-.519.603-.526 1.023-.006.389.141.789.415 1.127s.648.579 1.052.68q.203.05.402.05c.295 0 .573-.082.799-.241.021-.015.037-.035.057-.051l1.014 1.131-.366.734a1 1 0 0 0-.076.139l-2.131 1.125-3.636-5.555a2 2 0 0 0-.314-.36 1.3 1.3 0 0 0-.793-.449 2.2 2.2 0 0 0-.98-.076v4.029a.7.7 0 0 1 .216.101c.119.083.206.2.242.338l1.59 6.197v-2.518l1.211 1.851c.385.588 1.058.914 1.75.914.343 0 .69-.08 1.008-.249l3.88-2.048c.016-.008.028-.02.044-.029q.045.004.091.006c.252 0 .508-.059.743-.183l.729-.385.045.05a.454.454 0 0 0 .591.063l.407-.286a.38.38 0 0 0 .148-.409l.317-.168c.193-.102.331-.267.39-.467s.031-.407-.079-.586zm-1.88-1.388.059-.031a.2.2 0 0 1 .139-.016.18.18 0 0 1 .111.08.165.165 0 0 1-.069.233l-.846.447c-.043.022-.092.027-.139.016s-.087-.041-.111-.08a.165.165 0 0 1 .069-.233zm-1.038-.468.008-.016q.007-.018.013-.037.008-.02.015-.043l.556-.294a.2.2 0 0 1 .139-.016.18.18 0 0 1 .111.08c.031.051.028.11.002.159a.2.2 0 0 1-.071.075l-.846.447a.2.2 0 0 1-.115.018zm-3.7-1.64c-.156.109-.355.082-.46.056-.216-.054-.43-.196-.587-.389s-.244-.423-.241-.632c.002-.101.028-.286.184-.396a.5.5 0 0 1 .279-.081c.253 0 .555.152.767.413.299.369.325.839.058 1.027zm.673-1.541c-.299-.368-.325-.839-.057-1.027a.48.48 0 0 1 .279-.081c.253 0 .555.153.767.414.157.193.245.423.242.631-.002.101-.028.286-.184.396s-.355.082-.459.056a1.14 1.14 0 0 1-.587-.389zm.832 2.416c-.147-.182-.109-.44.087-.577s.473-.101.62.081a.4.4 0 0 1 .08.21.75.75 0 0 0-.287.298l-.07.141a.46.46 0 0 1-.43-.153m2.541 4.131-.296.156c-.413.219-.942.083-1.177-.301l-.799-1.308a.75.75 0 0 1-.082-.61l.004-.007.896-1.795c.023-.045.085-.075.162-.081a.38.38 0 0 1 .332.144q.012.014.021.029c.027.05.034.1.015.138l-.793 1.584c-.013.025-.015.052-.02.078a.29.29 0 0 0 .177.322q.067.028.136.028c.069 0 .09-.012.132-.029v1.428c0 .166.145.301.323.301s.323-.135.323-.301v-1.043l.979 1.092zm.591-1.359a.19.19 0 0 1-.25-.064.165.165 0 0 1 .069-.233l.846-.447a.2.2 0 0 1 .139-.016.18.18 0 0 1 .111.08.165.165 0 0 1-.069.233zm1.437.276a.17.17 0 0 1-.086.103l-.845.447a.2.2 0 0 1-.122.018.19.19 0 0 1-.129-.082.165.165 0 0 1 .069-.233l.846-.447a.2.2 0 0 1 .09-.022l.015.002.034.004q.074.02.111.081c.037.061.03.085.017.13zm-10.796 8.703-.18-3.894q-.001-.015-.005-.031l-1.761-6.865a.2.2 0 0 0-.038-.07.3.3 0 0 0-.224-.094H9.851a.3.3 0 0 0-.224.094.2.2 0 0 0-.038.07l-1.546 6.03-.241-.126q-.077-.038-.152-.068l1.52-5.928a.6.6 0 0 1 .242-.338.7.7 0 0 1 .215-.1v-4.014c-.754-.227-1.614-.035-2.17.555L.509 23.948c-.385.409-.565.951-.493 1.49s.389 1.025.87 1.333l3.986 2.555c.124.08.256.14.391.191.163.174.357.323.577.437l1.815.941.011.004-.022.464-.02.431a.17.17 0 0 0 .056.128c.051.05.129.079.211.079h12.414c.083 0 .16-.029.212-.079a.17.17 0 0 0 .056-.128l-.02-.431zM5.103 24.849l2.477-2.625v4.154a2 2 0 0 0-.244-.076c-.048-.037-.089-.078-.141-.112l-2.091-1.341zm4.85 3.561a.116.116 0 0 1-.15.04l-1.469-.761a.33.33 0 0 0-.264-.008c-.079.028-.149.08-.191.149s-.053.152-.029.229a.3.3 0 0 0 .154.181l.001.001 1.759.912c.034.018.047.046.052.061s.01.046-.009.078-.049.043-.066.048-.05.009-.084-.009l-1.76-.913a.3.3 0 0 0-.114-.03.4.4 0 0 0-.203.049l-.018.009a.4.4 0 0 0-.12.112.28.28 0 0 0-.029.229c.02.066.067.119.126.159q.013.012.028.022l1.469.761c.034.018.047.046.052.062s.01.045-.009.078c-.019.032-.049.044-.066.048s-.049.009-.084-.009l-1.633-.846c-.102-.053-.259-.032-.359.025a.3.3 0 0 0-.152.262.3.3 0 0 0 .053.154.3.3 0 0 0 .113.101l1.125.583c.034.018.047.046.052.061s.01.046-.009.078a.115.115 0 0 1-.15.04l-1.815-.941a1.45 1.45 0 0 1-.667-.702c-.175-.402-.155-.841.053-1.175.253-.406.74-.707 1.282-.707.22 0 .448.051.674.162l.02.009 2.395 1.256c.034.018.047.047.052.062s.01.046-.009.077zm7.99-1.491c-.009.528-.557.759-.836.351l-.281-.41a2.4 2.4 0 0 1-.336.679q.003.048.005.097c0 1.363-1.073 2.468-2.398 2.468s-2.398-1.105-2.398-2.468q.001-.049.005-.097a2.4 2.4 0 0 1-.336-.679l-.281.41c-.279.408-.827.177-.837-.351a15 15 0 0 0-.031-.754c-.061-.881 1.229-1.295 1.81-1.436.517-.346 1.251-.501 2.068-.501s1.551.156 2.068.501c.581.141 1.871.555 1.81 1.436-.018.251-.027.507-.032.754m-4.829 1.83c0-.371.44-.672.983-.672s.983.301.983.672-.44.672-.983.672-.983-.301-.983-.672"/>
    </symbol>
    <symbol id="icon-nutrition" viewBox="0 0 32 32">
      <path d="M22.415 19.13c-.748-.148-1.489.341-1.801 1.188a2.4 2.4 0 0 0-.126.507 8.6 8.6 0 0 0 2.03-1.674l-.103-.02zM23.109 10.926c1.403-1.12 1.801-3.423.888-5.144s-2.791-2.208-4.194-1.088-1.801 3.423-.888 5.144 2.791 2.208 4.194 1.088M28.673 11.865c-1.311-1.991-3.092-2.014-4.075-1.202s-.911 2.874-.09 4.259l.116.235c.283-1.053.323-1.818.323-1.828.029-.893.62-1.591 1.345-1.591l.051.001c.742.033 1.324.801 1.297 1.712v.003l-.001.015c-.022.51-.164 2.343-1.067 4.522q-.123.302-.29.651c.189.443.371.896.537 1.356l-1.149-.226c-.777 1.277-1.967 2.726-3.738 3.861l5.138 5.216c.314.319.695.475 1.073.475.484 0 .965-.255 1.298-.748.593-.879.493-2.181-.224-2.909l-1.236-1.255.4.079q.186.035.367.022c.29.017.632-.107 1.051-.287 1.166-.498 2.488-1.377 2.144-4.055-.694-3.597-1.482-5.555-3.271-8.306z"/>
      <path d="M26.332 17.84c.97-2.342 1.033-4.28 1.039-4.402.022-.73-.442-1.343-1.037-1.37s-1.093.541-1.117 1.269c-.002.084-.092 1.678-.879 3.475-.796 1.799-2.226 3.82-5.122 5.003-.565.229-.873.976-.686 1.67.149.556.571.908 1.024.908a.9.9 0 0 0 .338-.067c3.541-1.421 5.48-4.147 6.441-6.486zM12.134 24.129c.49.114 1.08.302 1.236.505.42.543.625 1.665 1.169 1.744.38.055.514.045.985-.328.465-.369.023-1.805-.088-2.357-.157-.783.218-1.643.224-1.696a.94.94 0 0 1 1.262-.559c.326.111.135-.629-.376-.999-.608-.439-1.047-.234-1.492.193-.858-.805-2.202-.648-2.966-.297a9 9 0 0 0-.169 1.744c0 .826.107 1.542.215 2.05m2.178-1.737c.2-.167.472-.104.609.141s.084.579-.115.746c-.2.167-.472.104-.609-.141s-.085-.579.115-.746M11.538 20.316a5 5 0 0 1-.569-.021.6.6 0 0 0-.197-.027l-.012.002c-2.749-.383-3.497-2.933-6.708-.287-.97-.35-2.126-1.101-3.002-2.705-.177-.322-.533-.407-.796-.19s-.333.654-.155.976c.833 1.51 1.863 2.395 2.829 2.913l-.035.097c-.248.457-.442 1.059-.568 1.861-.018.117-.804 6.273.431 6.273s1.574-4.656 2.264-5.253c.097.011 1.929 2.365 3.494 2.069.367-.07.863-.347 1.277-.643l.677 3.324c.076.373.348.626.653.626a1 1 0 0 0 .101-.009c.344-.063.591-.434.573-.86l-.176-4.139a11 11 0 0 1-.238-2.246c0-.549.044-1.144.158-1.763zM17.55 28.446h-.17l-.347-1.319h-3.889l-.347 1.319h-.17c-.137 0-.248.136-.248.305s.111.304.248.304h4.923c.137 0 .248-.136.248-.304s-.111-.305-.248-.305"/>
    </symbol>
    <symbol id="icon-training" viewBox="0 0 32 32">
      <path d="m6.231 25.595 1.154-3.878-.42-1.144c-.891-.149-1.626-.597-2.098-1.193l-1.573 5.221L.2 29.822c-.42.696-.157 1.591.577 1.989s1.678.149 2.098-.547l3.251-5.37c.052-.099.105-.199.105-.298zM1.09 14.764c.483.253 1.126.051 1.394-.456L4.897 9.65l.429-.304.215-1.266c.107-.658.429-1.266.858-1.772L3.503 8.08c-.161.101-.268.253-.375.405L.607 13.396c-.268.506-.054 1.114.483 1.367zM10.338 5.408c1.631 0 2.954-1.211 2.954-2.704S11.97 0 10.338 0C8.707 0 7.384 1.211 7.384 2.704s1.322 2.704 2.954 2.704M28.969 25.591s.052.05.052.1c.418-.249.575-.797.575-.797 1.569.448 1.883-.946 1.883-.946.209-.398-.837-.797-.837-.797-.052-.996-1.255-1.295-1.255-1.295-.575-.498-.418 0-.418 0-.575-.05-.942.149-.942.149-.942-.847-1.517.448-1.517.448-.157 0-.262.05-.418.05a25 25 0 0 0 2.877 3.088M30.429 28.782c-.272-.252-2.227-1.362-2.227-1.362.435-.202.489-1.059.489-1.362-1.032-.908-2.119-2.068-3.205-3.379-.543.101-4.129 1.513-7.606.05-1.304-.555-2.445.252-2.445.252-.978 1.059-.543 2.774-.543 2.774l1.358-1.362c.706-.504.978-.403 1.141-.151.109.202.054.454-.109.656-1.304 1.261-.869 2.572-.869 2.572l-1.847 1.513c-.706.706.109 1.261.109 1.261.163-.555 1.467-1.412 1.467-1.412-.054.656.272.807.272.807.924-.252.706-1.11.706-1.11 1.467-.05 1.63-.656 1.63-.656 1.467.252 2.173-.656 2.173-.656.38.656 3.694 1.362 3.694 1.362.217.101 1.467 2.421 1.467 2.421.272.05.543.403.543.403.598.353 1.847-.05 1.847-.05-.109-.454-.761-.454-.761-.454-1.467 0-1.25-2.27-1.25-2.27.054-.303 1.195.252 1.195.252l2.499.857c1.25.605 1.793-.101 1.793-.101.38-.555-1.521-.857-1.521-.857zM18.215 11.014c1.241 2.511 3.885 7.484 7.283 11.521.162-.049.378-.049.593-.098-.054-.049-.108-.098-.162-.197-3.399-3.988-6.043-8.961-7.23-11.423a1.1 1.1 0 0 1-.486.197z"/>
      <path d="M18.48 10.434c.543-.2.869-.748.652-1.247s-.814-.798-1.357-.599l-2.932.948c-3.421-2.944-3.584-3.443-4.941-3.642-1.738-.249-3.367.898-3.638 2.495l-1.303 8.382c-.271 1.597.977 3.093 2.715 3.343h.163l1.412 3.892-2.878 3.892c-.489.649-.326 1.597.434 2.046.706.449 1.738.299 2.226-.399l3.366-4.49c.271-.399.38-.848.217-1.297l-1.792-4.939c.271-.349.489-.798.543-1.247l1.195-7.434 1.357 1.197c.271.249.706.349 1.086.2l3.475-1.098z"/>
    </symbol>
    <symbol id="icon-bathing" viewBox="0 0 32 32">
      <path d="M22.772 14.919a3.32 3.32 0 0 0-1.247-1.493c-.399-.257-1.945-.463-1.995.978 0 0-.648.103-.599.566 0 0-.399 1.39 1.496 1.236 0 0 .349 2.625.648 3.192 0 0 .15.515.2 1.03h.798l.05-1.03s.449.309.798 1.03h1.147c-.05-.412-.1-.772-.2-1.03 0 0 1.696 0 2.294-.772 0 0 .499.978 1.097 1.03v.824h.798c.05-.154.05-.309.1-.566 0 0 .299.154.449.566h.698c-.1-.36-.998-3.707-1.297-3.964 0 0 .449-.051.599.515 0 0 .249 1.184.748 1.133 0 0 .349-.772-.249-1.75 0 0-.249-.721-1.546-.618l-3.741-.103a1.53 1.53 0 0 1-1.047-.772zM18.233 10.955a1.06 1.06 0 0 0-.15-1.39.985.985 0 0 0-1.347.154c-.948 1.236-2.644 1.441-3.841.927l-.648 1.853c2.045.824 4.539.412 5.986-1.544M9.753 7.712c1.35 0 2.444-1.129 2.444-2.522s-1.094-2.523-2.444-2.523S7.309 3.796 7.309 5.19c0 1.393 1.094 2.522 2.444 2.522"/>
      <path d="m11.2 20.994-2.095-.875 1.247-3.655c-2.793-1.596-3.791-4.118-3.841-4.273-.299-.772.05-1.596.798-1.905s1.546.051 1.846.824c.05.103.648 1.441 2.195 2.523l.948-2.677a.92.92 0 0 0-.15-.875C10.352 8.022 8.257 7.25 5.963 7.97c-.648.206-1.097.721-1.247 1.39L2.721 20.068v.309l.1 4.891-1.097-.257c-.748-.154-1.546.36-1.696 1.133s.349 1.596 1.097 1.75l2.843.618q.673.155 1.197-.309c.524-.464.549-.721.499-1.184l-.1-5.148 3.641 1.493v4.479c0 .824.648 1.493 1.447 1.493s1.447-.669 1.447-1.493v-5.457c.05-.618-.349-1.133-.898-1.39z"/>
      <path d="M15.041 15.382c-4.739-.36-6.235-3.912-6.285-4.067-.2-.515-.748-.721-1.247-.515s-.698.772-.499 1.287c.1.206 1.995 4.839 7.931 5.302.549.051.998-.36.998-.927s-.349-1.03-.898-1.081zM23.57 8.69c-.998.206-1.746 1.133-1.746 2.214h4.439a2.26 2.26 0 0 0-1.945-2.265c-1.496-1.699-3.891-1.03-5.786.669.1.103.2.257.299.412 1.347-1.287 3.192-2.162 4.739-1.03M31.152 20.891H17.136c-.399 0-.748.36-.748.772s.349.772.748.772h.15v1.287c0 2.008 1.596 3.655 3.542 3.655h6.734c1.945 0 3.541-1.647 3.541-3.655v-1.287h.15c.399 0 .748-.36.748-.772-.1-.463-.449-.772-.848-.772zM22.223 11.933l.05-.463c0-.154-.05-.257-.2-.257s-.249.052-.249.206l-.05.463c0 .154.05.257.2.257.1 0 .2-.103.249-.206M21.625 12.551l-.05.463c0 .154.05.257.2.257s.249-.052.249-.206l.05-.463c0-.154-.05-.257-.2-.257-.1 0-.2.103-.249.206M23.321 12.139c.15 0 .249-.103.249-.257v-.515c0-.154-.1-.257-.249-.257s-.249.103-.249.257v.515c0 .103.15.257.249.257M23.021 13.066c0 .154.1.257.249.257s.249-.103.249-.257v-.515c0-.154-.1-.257-.249-.257s-.249.103-.249.257zM24.668 11.161c-.15 0-.249.103-.249.257v.515c0 .154.1.257.249.257s.249-.103.249-.257v-.515c0-.154-.1-.257-.249-.257M24.518 12.602v.515c0 .154.1.257.249.257s.249-.103.249-.257v-.515c0-.154-.1-.257-.249-.257-.2 0-.299.103-.249.257M25.964 11.161c-.15 0-.2.154-.2.257l.05.463c0 .103.1.206.249.206s.249-.154.249-.309l-.1-.412c0-.154-.15-.257-.249-.206zM25.915 12.654l.05.463c0 .103.15.206.249.206.15 0 .249-.154.2-.257v-.515c0-.154-.15-.206-.249-.206-.15.051-.249.154-.249.309z"/>
    </symbol>
    <symbol id="icon-more-services-arrow" viewBox="0 0 87 32">
      <path fill="var(--color3, #ff9f0e)" d="M86.842 17.218a2.134 2.134 0 0 0 0-3.017L73.265.625a2.134 2.134 0 0 0-3.017 3.017L82.316 15.71 70.248 27.778a2.134 2.134 0 0 0 3.017 3.017zM0 17.843h85.333v-4.267H0z"/>
    </symbol>
    <symbol id="icon-slider-arrow" viewBox="0 0 36 32">
      <path fill="var(--color6, #fff)" d="M.625 17.218a2.134 2.134 0 0 1 0-3.017L14.201.625a2.134 2.134 0 0 1 3.017 3.017L5.15 15.71l12.068 12.068a2.134 2.134 0 0 1-3.017 3.017zm35.642-1.508v2.133H2.134v-4.267h34.133v2.133z"/>
    </symbol>
    <symbol id="icon-bone" viewBox="0 0 73 32">
      <path d="M72.673 13.749c.834-1.892.379-4.677 0-6.753-.295-1.765-1.027-3.222-2.124-4.502S67.831.608 66.302.243c-1.214-.314-3.038-.336-4.247 0s-1.168 1.335-2.124 2.251c-2.383 2.173-5.455 2.326-8.494 2.251H21.706c-3.039.076-6.112-.078-8.494-2.251-.956-.916-.914-1.915-2.124-2.251s-3.034-.314-4.247 0c-1.529.365-3.151.971-4.247 2.251S.766 5.231.47 6.996c-.38 2.076-.834 4.861 0 6.753.302.681 2.124 1.486 2.124 2.251S.773 17.57.47 18.251c-.832 1.892-.378 4.677 0 6.753.296 1.766 1.028 3.22 2.124 4.502s2.718 1.882 4.247 2.251c1.214.313 3.038.336 4.247 0s1.168-1.335 2.124-2.251c2.382-2.176 5.454-2.322 8.494-2.251h29.731c3.04-.071 6.113.075 8.494 2.251.956.916.914 1.915 2.124 2.251s3.034.313 4.247 0c1.529-.369 3.151-.969 4.247-2.251s1.828-2.736 2.124-4.502c.378-2.076.832-4.861 0-6.753-.302-.681-2.124-1.486-2.124-2.251s1.822-1.57 2.124-2.251"/>
    </symbol>
    <symbol id="icon-contacts-paw" viewBox="0 0 32 32">
      <path fill="var(--color6, #fff)" d="M21.149 15.422c1.953 2.349 5.221-1.079 5.22-3.537 2.229-3.987-1.949-6.633-4.365-2.928-2.416 1.247-3.644 5.918-.855 6.465m.553-.721c-2.603-.264-1.006-4.357.621-5.267l.078-.399c2.09-3.277 5.344-.982 3.254 2.296l-.078.399c.094 1.985-2.55 5.197-4.271 2.894zM13.884 10.958c1.951 2.36 5.296-1.465 5.298-3.936 2.234-4.011-1.976-6.494-4.443-2.529-2.418 1.256-3.644 5.918-.855 6.465m.553-.72c-2.603-.263-1.007-4.35.621-5.267l.078-.399c2.094-3.297 5.348-1.001 3.254 2.296.092 1.995-2.63 5.607-4.349 3.293zM23.616 24.082c1.821 1.822 5.06.117 4.589-2.417 1.531-2.874-2.842-5.389-4.839-2.606-2.328.765-2.034 4.331.25 5.023m.553-.72-.396-.078c-1.818-.601-1.858-3.362-.089-3.748l.396.078c1.393-2.169 4.725-.273 3.332 1.896l-.078.399c.377 1.783-1.843 3.347-3.243 1.852zM5.049 13.128c1.821 1.822 5.06.117 4.589-2.417 1.531-2.875-2.842-5.389-4.839-2.606-2.328.765-2.034 4.332.25 5.023m.553-.721-.396-.078c-1.818-.601-1.858-3.362-.089-3.748l.396.078c1.393-2.169 4.725-.273 3.332 1.896l-.078.399c.377 1.783-1.843 3.347-3.243 1.852z"/>
      <path fill="var(--color6, #fff)" d="M19.734 22.72c3.778-6.851-7.543-13.799-11.743-7.275-8.055 2.585-3.997 8.619.98 11.799 5.024 2.944 12.286 3.857 10.763-4.523zm-.793-.155c1.428 7.627-4.863 6.81-9.418 3.958S.69 18.762 8.23 16.321l.078-.399c3.873-6.098 14.037.453 10.632 6.643z"/>
    </symbol>
    <symbol id="icon-contacts-bone" viewBox="0 0 34 32">
      <path fill="var(--color6, #fff)" d="M28.457 7.813c-1.019-2.423-3.494-3.71-5.507-2.863-1.775.747-2.615 2.826-2.115 4.98l-10.704 4.503c-1.189-1.864-3.264-2.718-5.039-1.971-2.014.847-2.825 3.515-1.805 5.939.443 1.052 1.15 1.918 2.028 2.45-.221 1.031-.11 2.111.332 3.163 1.019 2.424 3.494 3.71 5.507 2.863 1.775-.747 2.615-2.827 2.115-4.98l10.678-4.491c1.189 1.864 3.264 2.718 5.039 1.971 2.014-.847 2.825-3.515 1.805-5.939-.443-1.052-1.15-1.918-2.028-2.45.248-1.042.137-2.122-.306-3.174zm-.843 4.445c.771.276 1.424.94 1.773 1.769.63 1.499.133 3.134-1.112 3.658-1.219.513-2.708-.212-3.365-1.699-.201-.478-.667-.695-1.064-.528L11.95 20.462c-.397.167-.528.672-.367 1.13.591 1.478.107 3.07-1.139 3.594s-2.762-.264-3.392-1.763c-.349-.829-.366-1.76-.024-2.504.118-.237.091-.526-.017-.781s-.321-.466-.547-.558c-.771-.276-1.424-.94-1.773-1.769-.63-1.499-.133-3.134 1.112-3.658 1.219-.513 2.708.212 3.365 1.699.201.478.667.695 1.064.528l11.949-5.026c.397-.167.528-.672.367-1.13-.591-1.478-.107-3.07 1.139-3.594s2.762.264 3.392 1.763c.349.829.366 1.76.024 2.504-.118.237-.091.526.017.781a.82.82 0 0 0 .494.58"/>
      <path fill="var(--color6, #fff)" d="M14.262 9.28c.397-.167.554-.684.353-1.162l-.952-2.264c-.201-.478-.68-.727-1.078-.56s-.554.684-.353 1.162l.952 2.264c.201.478.68.727 1.078.56M17.154 8.889a.57.57 0 0 0 .332-.027c.265-.111.449-.414.435-.746l-.064-2.375c-.015-.481-.389-.925-.827-1.003-.425-.046-.768.323-.779.816l.064 2.375c.015.481.389.925.84.96zM10.859 11.049c.267.263.572.322.837.211a.5.5 0 0 0 .251-.218c.264-.336.208-.913-.138-1.293l-1.653-1.707c-.333-.348-.838-.361-1.128-.013-.264.336-.208.913.138 1.293zM19.842 22.545c-.397.167-.554.684-.353 1.162l.952 2.264c.201.478.68.727 1.078.56s.554-.684.353-1.162l-.952-2.264c-.201-.478-.68-.727-1.078-.56M16.95 22.936c-.425-.046-.768.323-.779.816l.064 2.375c.015.481.389.925.827 1.003a.57.57 0 0 0 .332-.027c.265-.111.449-.414.435-.746l-.064-2.375c.011-.567-.363-1.011-.814-1.046zM23.245 20.776c-.333-.348-.838-.361-1.128-.013-.264.336-.208.913.138 1.293l1.653 1.706c.267.263.572.322.837.211a.5.5 0 0 0 .251-.218c.264-.336.208-.913-.138-1.293z"/>
    </symbol>
    <symbol id="icon-contacts-collar" viewBox="0 0 21 32">
      <path fill="var(--color6, #fff)" d="M1.099 3.545c-5.955 1.717-11.464 6.442-9.904 11.856l2.286 7.93c1.56 5.414 8.753 6.529 14.708 4.813s11.464-6.442 9.904-11.856l-2.3-7.978C14.246 2.944 7.054 1.828 1.098 3.545zm.104 23.321c-3.515-.324-6.085-1.846-6.646-3.793l-1.259-4.369c1.685 1.469 4.1 2.161 6.715 2.282-.258 1.052-.173 2.416.197 3.698.233.807.581 1.53.994 2.182zm-5.155-8.544c1.711-2.139 4.558-3.937 7.898-4.9s6.707-.956 9.295-.056c-1.597 1.952-4.313 3.815-7.912 4.852-3.585 1.085-6.877.953-9.281.104m20.984-1.728c.876 3.039-2.775 7.692-9.403 9.603-1.424.41-2.76.641-4.059.707-.883.049-1.874-1.054-2.299-2.526-.246-.855-.284-1.667-.086-2.341.172-.667.556-1.086 1.05-1.125 1.234-.098 2.478-.354 3.669-.698 4.48-1.291 8.713-4.312 9.855-8.035l1.273 4.416zm-2.811-4.693c-2.867-1.385-6.874-1.567-10.836-.426s-7.257 3.429-8.947 6.128c-1.115-.656-1.894-1.511-2.181-2.509-.876-3.039 2.775-7.692 9.403-9.603s12.21.132 13.072 3.124c.287.997.083 2.136-.511 3.285z"/>
      <path fill="var(--color6, #fff)" d="M3.401 25.152c.357-.103.494-.718.305-1.374s-.632-1.104-.99-1.001c-.357.103-.494.718-.305 1.374s.632 1.104.99 1.001M5.515 24.8c.358-.103.494-.718.305-1.374s-.632-1.104-.99-1.001-.494.718-.305 1.374.632 1.104.99 1.001M7.614 24.298c.357-.103.494-.718.305-1.374s-.632-1.104-.99-1.001c-.357.103-.494.718-.305 1.374s.632 1.104.99 1.001M9.632 23.613c.357-.103.494-.718.305-1.374s-.632-1.104-.99-1.001-.494.718-.305 1.374.632 1.104.99 1.001"/>
    </symbol>
    <symbol id="icon-form-name" viewBox="0 0 32 32">
      <path fill="var(--color3, #ff9f0e)" d="M11.384 9.714c0-1.125.446-2.204 1.241-3a4.233 4.233 0 0 1 7.231 3 4.25 4.25 0 0 1-1.241 3 4.23 4.23 0 0 1-5.99 0 4.25 4.25 0 0 1-1.241-3m4.235-6.666c-1.765 0-3.458.702-4.706 1.953a6.674 6.674 0 0 0 0 9.428 6.647 6.647 0 0 0 9.412 0 6.67 6.67 0 0 0 0-9.428 6.65 6.65 0 0 0-4.706-1.953M5.333 22.442c0-.964.382-1.889 1.063-2.571S8 18.806 8.963 18.806h13.311c.963 0 1.886.383 2.567 1.065s1.063 1.607 1.063 2.571v.274a4 4 0 0 1-.024.338c-.024.21-.069.494-.157.831a6.7 6.7 0 0 1-1.209 2.445c-1.416 1.821-4.079 3.384-8.895 3.384S8.141 28.15 6.724 26.33a6.8 6.8 0 0 1-1.21-2.445 6 6 0 0 1-.177-1.088l-.002-.081v-.028l-.001-.01v-.236zm2.42.215v.015q.025.306.103.604c.109.422.33.991.776 1.565.853 1.096 2.727 2.45 6.987 2.45s6.135-1.354 6.987-2.448c.362-.464.625-.997.774-1.566q.078-.298.104-.604l.001-.015v-.216a1.21 1.21 0 0 0-1.21-1.212H8.963a1.21 1.21 0 0 0-1.21 1.212v.216z"/>
    </symbol>
    <symbol id="icon-form-pet-name" viewBox="0 0 32 32">
      <path fill="var(--color3, #ff9f0e)" d="M6.467 29.333v-12.8l-.367-.367q-.366-.366-.567-.867c-.201-.501-.2-.678-.2-1.033a2.64 2.64 0 0 1 .767-1.867l4.367-4.4H15.8l5.333-5.333 2.733 2.733q1.334 1.333 2.067 3.016c.733 1.683.733 2.317.733 3.584a8.9 8.9 0 0 1-.733 3.584 9.7 9.7 0 0 1-2.067 3.016l-2.733 2.733v8H6.466zm2.666-2.666h9.333v-6.433l3.5-3.5q.966-.967 1.5-2.167c.534-1.2.533-1.655.533-2.567q0-1.333-.551-2.533c-.551-1.2-.86-1.522-1.483-2.167l-.833-.867-4.233 4.233h-5.333l-.767.767 2.233 2.233q.933.934 1.451 2.149c.518 1.215.516 1.662.516 2.551s-.167 1.739-.5 2.551a6.6 6.6 0 0 1-1.467 2.183l-3.9-3.9z"/>
    </symbol>
    <symbol id="icon-form-phone" viewBox="0 0 32 32">
      <path fill="var(--color3, #ff9f0e)" d="M27.833 29.333q-5.2 0-9.783-1.967c-4.583-1.967-5.723-3.105-8-5.383q-3.417-3.417-5.4-8C2.667 9.4 2.666 7.654 2.666 4.166q-.033-.6.4-1.051c.433-.451.644-.449 1.067-.449h5.2q.6 0 1.033.449c.433.449.433.662.433 1.084q0 1.467.2 2.767c.2 1.3.344 1.689.633 2.467q.166.366.067.749c-.099.383-.2.495-.4.717l-3.333 3.333q1.433 2.933 4.067 5.567c2.634 2.634 3.645 3.155 5.667 4.2l3.333-3.333q.3-.3.7-.4c.4-.1.533-.044.8.067q1.233.4 2.549.616c1.316.216 1.784.217 2.717.217q.633 0 1.084.467.449.467.449 1.133v5.1q0 .6-.433 1.033c-.433.433-.645.433-1.067.433zm-7.666-4q1.5.567 3.133.9c1.633.333 2.211.367 3.367.433v-2.867a24 24 0 0 1-2.116-.233 15 15 0 0 1-2.151-.5zm6.5-9.333q0-4.467-3.1-7.567c-3.1-3.1-4.589-3.1-7.567-3.1V2.666q2.767 0 5.2 1.049c2.433 1.049 3.033 1.651 4.233 2.851s2.15 2.611 2.849 4.233q1.05 2.433 1.051 5.2h-2.667zm-5.334 0q0-2.2-1.567-3.767c-1.567-1.567-2.3-1.567-3.767-1.567V7.999q3.333 0 5.667 2.333c2.334 2.333 2.333 3.444 2.333 5.667h-2.667zM6.667 11.767l2.2-2.233q-.267-.966-.451-2.033c-.184-1.067-.205-1.433-.249-2.167h-2.8q.066 1.6.4 3.2c.334 1.6.522 2.144.9 3.233"/>
    </symbol>
    <symbol id="icon-form-email" viewBox="0 0 32 32">
      <path fill="var(--color3, #ff9f0e)" d="M16 29.333q-2.733 0-5.167-1.051c-2.434-1.051-3.039-1.655-4.249-2.867q-1.817-1.816-2.867-4.249c-1.05-2.433-1.051-3.344-1.051-5.167q0-2.767 1.051-5.183C4.768 8.4 5.372 7.793 6.584 6.583Q8.4 4.765 10.833 3.715c2.433-1.05 3.345-1.049 5.167-1.049q2.766 0 5.183 1.049c2.417 1.049 3.023 1.656 4.233 2.868q1.817 1.817 2.867 4.233c1.05 2.416 1.051 3.338 1.051 5.183v1.933q0 1.966-1.349 3.349-1.351 1.384-3.317 1.384-1.2 0-2.233-.533c-1.033-.533-1.256-.822-1.7-1.4a6.63 6.63 0 0 1-4.733 1.933q-2.767 0-4.716-1.951c-1.949-1.951-1.951-2.872-1.951-4.716q0-2.767 1.951-4.717c1.951-1.95 2.872-1.949 4.716-1.949q2.767 0 4.717 1.949c1.95 1.949 1.949 2.873 1.949 4.717v1.933q0 .966.6 1.516c.6.55.867.551 1.4.551q.8 0 1.4-.551c.6-.551.6-.872.6-1.516v-1.933q0-4.367-3.151-7.517c-3.151-3.15-4.605-3.149-7.516-3.149s-5.417 1.05-7.517 3.149q-3.15 3.15-3.149 7.517c.001 4.367 1.05 5.416 3.149 7.516q3.15 3.15 7.517 3.151h6.667v2.667zM16 20q1.666 0 2.833-1.167C20 17.666 20 17.111 20 16q0-1.667-1.167-2.833C17.666 12.001 17.111 12 16 12q-1.667 0-2.833 1.167C12.001 14.334 12 14.889 12 16q0 1.667 1.167 2.833C14.334 19.999 14.889 20 16 20"/>
    </symbol>
    <symbol id="icon-checkbox" viewBox="0 0 32 32">
      <use xlink:href="#reuse-0" stroke-width="2"/>
    </symbol>
    <symbol id="icon-instagram" viewBox="0 0 32 32">
      <path fill="none" stroke="var(--color3, #ff9f0e)" stroke-linecap="round" stroke-linejoin="round" stroke-width="2.1" d="M16 21.333a5.334 5.334 0 1 0 0-10.668 5.334 5.334 0 0 0 0 10.668"/>
      <path fill="none" stroke="var(--color3, #ff9f0e)" stroke-width="2.1" d="M4 21.333V10.666a6.67 6.67 0 0 1 6.667-6.667h10.667a6.67 6.67 0 0 1 6.667 6.667v10.667A6.67 6.67 0 0 1 21.334 28H10.667A6.67 6.67 0 0 1 4 21.333z"/>
      <path fill="none" stroke="var(--color3, #ff9f0e)" stroke-linecap="round" stroke-linejoin="round" stroke-width="2.1" d="m23.333 8.681.014-.015"/>
    </symbol>
    <symbol id="icon-facebook" viewBox="0 0 32 32">
      <path fill="var(--color3, #ff9f0e)" d="M29 16c0-2.571-.762-5.085-2.191-7.222S23.35 4.974 20.975 3.99A13 13 0 0 0 6.808 6.808a13.002 13.002 0 0 0 1.97 20.001A13 13 0 0 0 16 29a13.01 13.01 0 0 0 13-13M17 26.95V19h3a.997.997 0 0 0 1-1 .997.997 0 0 0-1-1h-3v-3a2 2 0 0 1 2-2h2a.997.997 0 0 0 1-1 .997.997 0 0 0-1-1h-2a4.014 4.014 0 0 0-4 4v3h-3a.997.997 0 0 0-1 1 .997.997 0 0 0 1 1h3v7.95a11.003 11.003 0 0 1-9.989-11.455 10.996 10.996 0 0 1 18.587-7.453c2.047 1.956 3.261 4.625 3.389 7.453s-.838 5.596-2.698 7.73-4.472 3.468-7.291 3.725z"/>
    </symbol>
    <symbol id="icon-close-btn" viewBox="0 0 32 32">
      <path stroke-linecap="round" stroke-width="4.571" d="M2.286 2.286 16 16 29.714 2.286M2.286 29.714 16 16l13.714 13.714"/>
    </symbol>
    <symbol id="icon-burger" viewBox="0 0 32 32">
      <path fill="var(--color3, #ff9f0e)" d="M29.333 24.007c0 .733-.595 1.327-1.327 1.327h-10.68a1.326 1.326 0 0 1 0-2.654h10.68c.733 0 1.327.593 1.327 1.327m0-8.007c0 .733-.595 1.327-1.327 1.327H3.993a1.326 1.326 0 0 1 0-2.654h24.013c.733 0 1.327.595 1.327 1.327m-1.326-6.68a1.326 1.326 0 0 0 0-2.654H11.994a1.32 1.32 0 0 0-1.226.819 1.32 1.32 0 0 0 0 1.016 1.332 1.332 0 0 0 1.226.819z"/>
    </symbol>
    <symbol id="icon-sorting-arrows" viewBox="0 0 30 32">
      <path fill="var(--color3, #ff9f0e)" d="M7.596.276a.94.94 0 0 0-1.331 0l-5.99 5.99a.94.94 0 1 0 1.331 1.331L6.93 2.273l5.324 5.324a.94.94 0 1 0 1.331-1.331L7.595.276zM5.989.941v30.118h1.882V.941zM21.324 31.724a.94.94 0 0 0 1.331 0l5.99-5.99a.94.94 0 1 0-1.331-1.331l-5.324 5.324-5.324-5.324a.94.94 0 1 0-1.331 1.331l5.99 5.99zM21.048.941v30.118h1.882V.941z"/>
    </symbol>
    <symbol id="icon-slider-nutrition-arrow" viewBox="0 0 32 32">
      <path d="M22.467 28.133q.5-.5.5-1.184c0-.684-.167-.849-.5-1.183L12.7 15.999l9.8-9.8q.467-.466.467-1.167c0-.701-.167-.867-.5-1.2q-.5-.5-1.184-.5c-.684 0-.849.167-1.183.5L8.9 15.065q-.2.2-.284.433c-.084.233-.083.322-.083.5s.028.344.083.5q.084.234.284.433l11.233 11.233q.466.467 1.149.467c.683 0 .851-.167 1.184-.5z"/>
    </symbol>
    <symbol id="icon-star" viewBox="0 0 34 32">
      <path d="m16.231 0 3.832 11.793h12.4l-10.032 7.288 3.832 11.793-10.032-7.288-10.032 7.288 3.832-11.793-10.032-7.288h12.4z"/>
    </symbol>
    <path id="reuse-0" fill="none" stroke="var(--color1, #839aa9)" d="M4 1h24a3 3 0 0 1 3 3v24a3 3 0 0 1-3 3H4a3 3 0 0 1-3-3V4a3 3 0 0 1 3-3z"/>
  </defs>
</svg>
