<svg width="80" height="75" viewBox="0 0 80 75" fill="none" xmlns="http://www.w3.org/2000/svg">
<path d="M66.6957 18.311C64.3065 12.6309 58.5073 9.6166 53.7878 11.6018C49.6272 13.3518 47.6579 18.2264 48.8311 23.2745L23.7433 33.8272C20.9555 29.4582 16.094 27.4569 11.9334 29.207C7.21389 31.1921 5.31289 37.4454 7.70212 43.1255C8.73955 45.5919 10.3972 47.6214 12.4558 48.8666C11.9376 51.2836 12.1977 53.8131 13.2351 56.2795C15.6243 61.9596 21.4235 64.9739 26.143 62.9888C30.3036 61.2387 32.2729 56.3641 31.0997 51.316L56.1253 40.7894C58.9132 45.1584 63.7747 47.1597 67.9353 45.4097C72.6548 43.4245 74.5558 37.1713 72.1666 31.4911C71.1291 29.0248 69.4715 26.9952 67.4129 25.75C67.9932 23.3069 67.7331 20.7774 66.6957 18.311ZM64.7198 28.73C66.5269 29.3773 68.058 30.9323 68.8753 32.8755C70.3529 36.3882 69.1878 40.2209 66.2691 41.4485C63.4126 42.6501 59.9211 40.9521 58.3815 37.4655C57.9099 36.3444 56.8189 35.8357 55.8874 36.2275L28.0052 47.9556C27.0737 48.3474 26.7679 49.5316 27.1459 50.6041C28.5299 54.0682 27.3955 57.8 24.4768 59.0276C21.5582 60.2553 18.0039 58.4078 16.5263 54.8951C15.7089 52.9519 15.6682 50.77 16.4693 49.0256C16.7468 48.4691 16.6816 47.7928 16.4301 47.1949C16.1786 46.597 15.6787 46.1036 15.1489 45.8866C13.3418 45.2393 11.8107 43.6843 10.9933 41.7411C9.5158 38.2284 10.6809 34.3958 13.5996 33.1681C16.4561 31.9666 19.9476 33.6646 21.4872 37.1512C21.9588 38.2722 23.0498 38.7809 23.9812 38.3891L51.9877 26.6088C52.9191 26.217 53.225 25.0328 52.847 23.9603C51.4629 20.4962 52.5974 16.7644 55.516 15.5368C58.4347 14.3091 61.989 16.1566 63.4666 19.6693C64.284 21.6125 64.3247 23.7944 63.5236 25.5388C63.2461 26.0953 63.3113 26.7716 63.5628 27.3695C63.6901 28.0196 64.19 28.513 64.7198 28.73Z" fill="white"/>
<path d="M33.4265 21.7496C34.358 21.3578 34.7259 20.1475 34.2543 19.0264L32.0223 13.72C31.5507 12.5989 30.4283 12.0155 29.4968 12.4073C28.5654 12.7991 28.1974 14.0094 28.669 15.1305L30.901 20.4369C31.3726 21.558 32.495 22.1414 33.4265 21.7496Z" fill="white"/>
<path d="M40.2038 20.8342C40.5151 20.8792 40.7328 20.8756 40.9812 20.7711C41.6022 20.5099 42.0345 19.8002 42 19.0231L41.851 13.4562C41.8149 12.3279 40.9393 11.2888 39.9119 11.1052C38.916 10.9963 38.1111 11.8627 38.0851 13.0171L38.2341 18.584C38.2702 19.7123 39.1458 20.7514 40.2038 20.8342Z" fill="white"/>
<path d="M25.4504 25.8965C26.0752 26.5132 26.7913 26.6518 27.4123 26.3906C27.6607 26.2862 27.8776 26.1069 28.0011 25.8791C28.6197 25.0911 28.4893 23.7386 27.6766 22.8489L23.8017 18.8493C23.0204 18.0344 21.8382 18.0039 21.1574 18.818C20.5388 19.606 20.6692 20.9586 21.4819 21.8482L25.4504 25.8965Z" fill="white"/>
<path d="M46.5044 52.8409C45.5729 53.2327 45.205 54.443 45.6766 55.5641L47.9086 60.8705C48.3802 61.9916 49.5026 62.575 50.4341 62.1832C51.3656 61.7914 51.7335 60.5811 51.2619 59.46L49.0299 54.1536C48.5583 53.0325 47.4359 52.4491 46.5044 52.8409Z" fill="white"/>
<path d="M39.727 53.7565C38.7311 53.6477 37.9261 54.514 37.9001 55.6685L38.0491 61.2353C38.0852 62.3637 38.9608 63.4028 39.9882 63.5864C40.2994 63.6314 40.5172 63.6277 40.7656 63.5232C41.3865 63.262 41.8189 62.5524 41.7844 61.7753L41.6353 56.2084C41.6606 54.8784 40.785 53.8393 39.727 53.7565Z" fill="white"/>
<path d="M54.4806 48.6943C53.6993 47.8794 52.5171 47.8489 51.8363 48.663C51.2177 49.451 51.3481 50.8035 52.1608 51.6932L56.0357 55.6928C56.6606 56.3096 57.3767 56.4482 57.9976 56.187C58.246 56.0825 58.463 55.9033 58.5864 55.6755C59.2051 54.8875 59.0747 53.5349 58.262 52.6453L54.4806 48.6943Z" fill="white"/>
</svg>
