<svg width="76" height="76" viewBox="0 0 76 76" fill="none" xmlns="http://www.w3.org/2000/svg">
<path d="M50.2298 36.6272C54.8685 42.2061 62.6292 34.0649 62.6268 28.2269C67.9215 18.7569 57.9975 12.4737 52.2609 21.2734C46.5219 24.2351 43.6059 35.3292 50.2298 36.6272ZM51.5426 34.9154C45.3605 34.2878 49.1537 24.5677 53.0164 22.4059L53.2022 21.4578C58.1664 13.6743 65.8944 19.1265 60.9301 26.91L60.7443 27.8581C60.9671 32.5717 54.6881 40.2018 50.6013 34.731L51.5426 34.9154Z" fill="white"/>
<path d="M32.9755 26.0264C37.6093 31.6303 45.5546 22.5473 45.5583 16.6781C50.864 7.15182 40.8644 1.25448 35.0067 10.6726C29.2634 13.6562 26.3516 24.7285 32.9755 26.0264V26.0264ZM34.2883 24.3146C28.1056 23.6902 31.8963 13.9826 35.7621 11.8051L35.9479 10.857C40.9214 3.02662 48.6493 8.47883 43.6758 16.3092V16.3092C43.8937 21.0479 37.4289 29.626 33.3471 24.1302L34.2883 24.3146Z" fill="white"/>
<path d="M56.0875 57.1959C60.4122 61.5231 68.1055 57.4745 66.986 51.4554C70.6226 44.6285 60.2367 38.6554 55.4931 45.2655C49.9645 47.0821 50.6621 55.5528 56.0875 57.1959V57.1959ZM57.4003 55.4841L56.459 55.2997C52.1406 53.8735 52.0458 47.3144 56.2486 46.398L57.1898 46.5825C60.4981 41.431 68.4118 45.9352 65.1035 51.0866L64.9177 52.0347C65.8121 56.2697 60.5417 59.984 57.2145 56.4322L57.4003 55.4841Z" fill="white"/>
<path d="M11.9916 31.1783C16.3163 35.5056 24.0096 31.457 22.8901 25.4379C26.5267 18.6109 16.1409 12.6379 11.3972 19.248C5.86865 21.0645 6.5662 29.5353 11.9916 31.1783V31.1783ZM13.3044 29.4666L12.3632 29.2822C8.04472 27.856 7.94996 21.2969 12.1527 20.3805L13.0939 20.5649C16.4022 15.4135 24.316 19.9176 21.0076 25.0691L20.8218 26.0172C21.7162 30.2522 16.4458 33.9665 13.1186 30.4147L13.3044 29.4666Z" fill="white"/>
<path d="M46.8679 53.9601C55.8396 37.6878 28.9538 21.1874 18.978 36.6814C-0.152797 42.8204 9.4844 57.1522 21.3061 64.7032C33.2376 71.6941 50.4863 73.8627 46.8679 53.9601ZM44.9855 53.5913V53.5913C48.3761 71.7044 33.4365 69.7641 22.6189 62.9915C11.8013 56.2188 1.64051 44.5591 19.5477 38.762L19.7335 37.8139C28.9328 23.331 53.071 38.8901 44.9855 53.5913Z" fill="white"/>
</svg>
