<svg width="52" height="80" viewBox="0 0 52 80" fill="none" xmlns="http://www.w3.org/2000/svg">
<path d="M2.74812 8.86301C-12.1404 13.1546 -25.9126 24.9679 -22.0115 38.5018L-16.2967 58.3278C-12.3956 71.8617 5.58558 74.6508 20.4741 70.3593C35.3627 66.0677 49.1348 54.2544 45.2338 40.7205L39.4848 20.7758C35.6179 7.36055 17.6367 4.57145 2.74812 8.86301ZM3.0071 67.1648C-5.78004 66.3545 -12.2054 62.549 -13.6084 57.6815L-16.7567 46.7594C-12.5434 50.431 -6.50551 52.1624 0.0316552 52.464C-0.61282 55.0928 -0.400941 58.5034 0.523002 61.7089C1.10474 63.7271 1.97593 65.5333 3.0071 67.1648ZM-9.88019 45.8059C-5.6024 40.4582 1.51537 35.9635 9.86591 33.5565C18.2165 31.1495 26.6346 31.1661 33.1025 33.4164C29.1104 38.2959 22.32 42.9535 13.3221 45.5471C4.35849 48.2594 -3.86915 47.9307 -9.88019 45.8059ZM42.5797 41.4855C44.7698 49.0835 35.6427 60.7151 19.0711 65.4918C15.5108 66.518 12.1715 67.0948 8.92374 67.2595C6.71541 67.3817 4.23787 64.6241 3.17705 60.9438C2.56109 58.8069 2.4667 56.7768 2.96232 55.0909C3.3932 53.4238 4.35308 52.3756 5.58671 52.2772C8.67079 52.0311 11.7817 51.3916 14.7594 50.5332C25.9582 47.3052 36.5419 39.7542 39.3972 30.4447L42.5797 41.4855ZM35.552 29.7529C28.3841 26.29 18.367 25.8342 8.46288 28.689C-1.44125 31.5438 -9.67886 37.2614 -13.9039 44.0083C-16.6903 42.3684 -18.6388 40.2299 -19.3574 37.7368C-21.5475 30.1388 -12.4205 18.5072 4.15115 13.7305C20.7228 8.95378 34.6749 14.0615 36.8307 21.5408C37.5493 24.0339 37.038 26.8815 35.552 29.7529Z" fill="white"/>
<path d="M8.50285 62.8805C9.39663 62.6229 9.73815 61.0853 9.26567 59.4461C8.79319 57.8069 7.68562 56.687 6.79185 56.9446C5.89807 57.2022 5.55654 58.7399 6.02903 60.379C6.50151 62.0182 7.60908 63.1382 8.50285 62.8805Z" fill="white"/>
<path d="M13.7879 61.9998C14.6817 61.7422 15.0232 60.2045 14.5507 58.5654C14.0782 56.9262 12.9707 55.8062 12.0769 56.0639C11.1831 56.3215 10.8416 57.8591 11.3141 59.4983C11.7865 61.1375 12.8941 62.2574 13.7879 61.9998Z" fill="white"/>
<path d="M19.035 60.7448C19.9287 60.4872 20.2703 58.9495 19.7978 57.3104C19.3253 55.6712 18.2177 54.5512 17.3239 54.8089C16.4302 55.0665 16.0886 56.6041 16.5611 58.2433C17.0336 59.8825 18.1412 61.0024 19.035 60.7448Z" fill="white"/>
<path d="M24.0804 59.033C24.9741 58.7754 25.3157 57.2377 24.8432 55.5986C24.3707 53.9594 23.2631 52.8394 22.3694 53.0971C21.4756 53.3547 21.1341 54.8924 21.6065 56.5315C22.079 58.1707 23.1866 59.2906 24.0804 59.033Z" fill="white"/>
</svg>
