<svg width="59" height="53" viewBox="0 0 59 53" fill="none" xmlns="http://www.w3.org/2000/svg">
<path d="M27.5452 26.2804C22.9624 27.1584 22.5204 31.0782 18.905 35.252C13.6741 41.344 15.5729 45.5875 19.5325 45.8328C23.3801 46.1381 26.0014 41.8394 30.088 41.3589C34.1582 40.6242 37.9627 43.8462 41.6307 42.2748C45.1866 40.7635 45.6434 36.1781 38.6475 32.036C33.9461 29.2946 32.2566 25.5966 27.5452 26.2804Z" fill="#839AA9"/>
<path d="M16.5669 24.9662C19.7367 27.6878 20.5327 31.4137 18.5707 33.269C16.6087 35.1244 12.2995 34.3531 9.24187 31.5715C6.07213 28.8499 5.16393 25.1842 7.2381 23.2687C9.31226 21.3532 13.3972 22.2447 16.5669 24.9662Z" fill="#839AA9"/>
<path d="M38.7092 21.5576C36.5054 24.9959 36.8616 28.5667 39.3944 29.5916C41.9272 30.6165 45.6902 28.5995 47.7187 25.1299C49.9224 21.6916 49.5663 18.1208 47.0335 17.0959C44.5007 16.071 40.7377 18.088 38.7092 21.5576Z" fill="#839AA9"/>
<path d="M25.7519 15.4978C27.2411 19.4312 26.07 23.4387 23.1003 24.4897C20.1306 25.5406 16.4211 23.0677 14.9318 19.1342C13.4426 15.2008 14.6138 11.1933 17.5834 10.1423C20.5531 9.09136 24.2627 11.5643 25.7519 15.4978Z" fill="#839AA9"/>
<path d="M26.7427 14.6938C26.5627 18.7519 28.7977 21.899 31.7748 21.8368C34.7519 21.7747 37.2679 18.5092 37.4478 14.4511C37.6278 10.393 35.3929 7.24592 32.4157 7.3081C29.4386 7.37028 26.9226 10.6357 26.7427 14.6938Z" fill="#839AA9"/>
</svg>
