<svg aria-hidden="true" style="position: absolute; width: 0; height: 0; overflow: hidden;" version="1.1" xmlns="http://www.w3.org/2000/svg" xmlns:xlink="http://www.w3.org/1999/xlink">
<defs>
<symbol id="icon-checkbox-active-icon" viewBox="0 0 32 32">
<path fill="none" stroke="#839aa9" style="stroke: var(--color1, #839aa9)" stroke-linejoin="miter" stroke-linecap="butt" stroke-miterlimit="4" stroke-width="2" d="M4 1h24c1.657 0 3 1.343 3 3v24c0 1.657-1.343 3-3 3h-24c-1.657 0-3-1.343-3-3v-24c0-1.657 1.343-3 3-3z"></path>
<path fill="#839aa9" style="fill: var(--color1, #839aa9)" d="M8.546 15.841c2.23 2.412 4.392 4.584 6.47 7.331 2.259-4.494 4.572-9.003 8.387-13.887l-1.028-0.471c-3.222 3.417-5.725 6.651-7.9 10.495-1.512-1.363-3.957-3.291-5.449-4.281l-0.48 0.813z"></path>
</symbol>
<symbol id="icon-logo" viewBox="0 0 135 32">
<path fill="#fcb62a" style="fill: var(--color2, #fcb62a)" d="M15.558 18.557c0.181 3.691 2.861 4.162 5.358 7.263 3.695 4.434 6.668 3.117 7.173-0.081 0.477-3.073-2.121-5.266-2.292-8.55s2.271-6.254 1.525-9.188c-0.746-2.934-3.823-3.4-7.096 1.989-2.21 3.718-4.757 4.905-4.668 8.566z"></path>
<path fill="#ff9f0e" style="fill: var(--color3, #ff9f0e)" d="M9.971 9.458c2.092 1.699 4.582 1.093 5.468-0.778s-0.185-5.15-2.303-6.731c-2.092-1.699-4.582-1.093-5.468 0.778-0.86 1.752 0.211 5.032 2.303 6.731z"></path>
<path fill="#fcb62a" style="fill: var(--color2, #fcb62a)" d="M4.798 18.931c2.467 0.132 4.711-1.56 4.987-4.028 0.248-2.343-1.527-4.403-4.077-4.562-2.467-0.132-4.712 1.56-4.987 4.028-0.248 2.343 1.61 4.43 4.077 4.562z"></path>
<path fill="#fa0" style="fill: var(--color4, #fa0)" d="M5.972 30.71c2.242 0.049 4.481-1.872 4.788-4.366 0.279-2.367-1.157-5.012-3.474-5.085-2.242-0.049-4.481 1.872-4.788 4.366-0.279 2.367 1.232 5.037 3.474 5.085z"></path>
<path fill="#ff9f0e" style="fill: var(--color3, #ff9f0e)" d="M35.397 24.93v-13.026l-0.476-2.381 0.476-1.453h7.097c1.143 0 2.239 0.111 3.286 0.333 1.064 0.206 2.008 0.603 2.834 1.191 0.841 0.587 1.5 1.429 1.977 2.524 0.492 1.095 0.738 2.516 0.738 4.263s-0.246 3.183-0.738 4.31c-0.492 1.111-1.159 1.977-2 2.596s-1.794 1.048-2.858 1.286c-1.048 0.238-2.127 0.357-3.239 0.357h-7.097zM39.731 21.12h2.762c1.397 0 2.469-0.365 3.215-1.095 0.746-0.746 1.119-1.961 1.119-3.644s-0.381-2.85-1.143-3.501c-0.746-0.667-1.81-1-3.191-1h-2.762v9.24zM61.308 25.168c-1.016 0-2.008-0.119-2.977-0.357-0.953-0.254-1.818-0.699-2.596-1.334-0.762-0.635-1.373-1.516-1.834-2.643-0.445-1.127-0.667-2.572-0.667-4.334s0.222-3.207 0.667-4.334c0.46-1.127 1.072-2.008 1.834-2.643 0.778-0.635 1.643-1.072 2.596-1.31 0.968-0.254 1.961-0.381 2.977-0.381s2 0.127 2.953 0.381c0.968 0.254 1.834 0.699 2.596 1.334 0.778 0.635 1.389 1.516 1.834 2.643 0.46 1.127 0.691 2.564 0.691 4.31s-0.23 3.183-0.691 4.31c-0.445 1.127-1.056 2.008-1.834 2.643-0.762 0.635-1.627 1.080-2.596 1.334-0.953 0.254-1.937 0.381-2.953 0.381zM61.308 21.12c1.175 0 2.064-0.349 2.667-1.048s0.905-1.889 0.905-3.572-0.302-2.874-0.905-3.572c-0.603-0.699-1.492-1.048-2.667-1.048-1.159 0-2.040 0.357-2.643 1.072s-0.905 1.897-0.905 3.548 0.302 2.834 0.905 3.548c0.603 0.714 1.484 1.072 2.643 1.072zM80.307 25.168c-1.223 0-2.381-0.119-3.477-0.357-1.080-0.254-2.041-0.699-2.882-1.334-0.826-0.635-1.476-1.516-1.953-2.643s-0.714-2.572-0.714-4.334c0-1.699 0.254-3.104 0.762-4.215 0.508-1.127 1.183-2.016 2.024-2.667 0.857-0.651 1.802-1.111 2.834-1.381 1.048-0.27 2.103-0.405 3.167-0.405 0.778 0 1.453 0.040 2.024 0.119s1.119 0.183 1.643 0.31l3.239 1.881-1.667 3.691-5.263-1.857c-0.762 0-1.469 0.151-2.119 0.452-0.636 0.302-1.151 0.786-1.548 1.453-0.381 0.651-0.572 1.532-0.572 2.643 0 1.794 0.397 3.056 1.191 3.786 0.81 0.714 1.913 1.072 3.31 1.072 0.714 0 1.27-0.032 1.667-0.095 0.412-0.079 0.73-0.143 0.953-0.191v-1.81h-3.024v-3.524h7.573l0.262 1.429-0.524 1.977v5.001c-0.175 0.063-0.572 0.175-1.191 0.333-0.604 0.159-1.398 0.31-2.381 0.452-0.969 0.143-2.080 0.214-3.334 0.214zM95.506 25.109c-0.703 0-1.411-0.101-2.125-0.304-0.703-0.202-1.351-0.542-1.947-1.018-0.583-0.488-1.054-1.149-1.411-1.982-0.357-0.845-0.536-1.911-0.536-3.197 0-1.298 0.25-2.429 0.75-3.393 0.512-0.976 1.209-1.738 2.090-2.286s1.881-0.822 3.001-0.822c0.536 0 1.048 0.048 1.536 0.143 0.5 0.095 0.881 0.202 1.143 0.322l1.983 1.804-1.25 1.875-3.054-1.572c-0.667 0-1.268 0.161-1.804 0.482s-0.964 0.78-1.286 1.375c-0.31 0.583-0.464 1.274-0.464 2.072 0 0.917 0.161 1.673 0.482 2.268 0.333 0.595 0.786 1.042 1.357 1.34 0.572 0.286 1.209 0.429 1.911 0.429 0.714 0 1.328-0.060 1.84-0.179 0.512-0.131 0.941-0.274 1.286-0.429 0.345-0.167 0.607-0.31 0.786-0.429v2.429c-0.333 0.226-0.845 0.464-1.536 0.714-0.679 0.238-1.596 0.357-2.751 0.357zM102.061 24.93l-0.357-1.072 0.357-1.786v-9.788h2.5v7.341l-0.179 2.983h0.357l3.911-0.179 1.268-0.179 1.215 1.536-0.875 1.143h-8.198zM116.707 25.109c-1.226 0-2.191-0.202-2.893-0.607-0.691-0.405-1.185-1-1.482-1.786-0.286-0.798-0.429-1.768-0.429-2.911v-4.644l0.018-1.804-0.018-1.072h2.536v7.698c0 0.834 0.167 1.512 0.5 2.036 0.333 0.512 0.923 0.768 1.768 0.768s1.441-0.238 1.786-0.714c0.357-0.488 0.536-1.185 0.536-2.090v-7.698h2.483v7.519c0 1.119-0.143 2.078-0.429 2.876-0.274 0.786-0.762 1.387-1.465 1.804-0.691 0.417-1.661 0.625-2.911 0.625zM123.828 24.93v-9.788l-0.357-1.786 0.357-1.072h4.644c0.905 0 1.685 0.107 2.34 0.322 0.667 0.202 1.185 0.536 1.554 1s0.554 1.084 0.554 1.857c0 0.476-0.083 0.929-0.25 1.357-0.155 0.417-0.423 0.768-0.804 1.054 0.75 0.262 1.322 0.655 1.715 1.179s0.589 1.22 0.589 2.090c0 1.322-0.369 2.286-1.107 2.893-0.738 0.595-1.852 0.893-3.34 0.893h-5.894zM126.329 17.375h2.465c1 0 1.5-0.441 1.5-1.322 0-0.441-0.101-0.792-0.304-1.054s-0.601-0.393-1.197-0.393h-2.465v2.768zM126.329 22.608h3.215c0.631 0 1.089-0.143 1.375-0.429 0.298-0.286 0.446-0.685 0.446-1.197 0-0.488-0.161-0.857-0.482-1.107-0.31-0.25-0.816-0.375-1.518-0.375h-3.036v3.108z"></path>
</symbol>
<symbol id="icon-basket" viewBox="0 0 32 32">
<path fill="#ff9f0e" style="fill: var(--color3, #ff9f0e)" d="M1.5 12.8h29v-2.133h-29v2.133zM29.867 12.166v0.937h2.133v-0.937h-2.133zM26.423 29.867h-20.847v2.133h20.847v-2.133zM2.133 13.103v-0.937h-2.133v0.937h2.133zM6.178 30.238c-2.66-5.32-4.045-11.187-4.045-17.135h-2.133c0 6.281 1.461 12.474 4.271 18.091l1.907-0.956zM5.577 29.867c0.256 0 0.489 0.145 0.602 0.371l-1.907 0.956c0.121 0.242 0.308 0.446 0.538 0.588s0.496 0.218 0.767 0.218v-2.133zM25.822 30.238c0.056-0.112 0.142-0.206 0.248-0.271s0.229-0.1 0.354-0.1v2.133c0.555 0 1.058-0.312 1.306-0.806l-1.907-0.956zM29.867 13.103c0 5.948-1.387 11.814-4.045 17.135l1.907 0.956c2.809-5.617 4.271-11.811 4.271-18.091h-2.133zM30.5 12.8c-0.168 0-0.329-0.067-0.448-0.186s-0.186-0.28-0.186-0.448h2.133c0-0.398-0.158-0.779-0.439-1.060s-0.663-0.439-1.060-0.439v2.133zM1.5 10.667c-0.398 0-0.779 0.158-1.060 0.439s-0.439 0.663-0.439 1.060h2.133c0 0.168-0.067 0.329-0.186 0.448s-0.28 0.186-0.448 0.186v-2.133zM8.382 12.282l6.4-10.667-1.832-1.097-6.4 10.667 1.832 1.096zM17.218 1.615l6.4 10.667 1.83-1.096-6.4-10.667-1.83 1.097zM10.667 21.333h10.667v-2.133h-10.667v2.133z"></path>
</symbol>
<symbol id="icon-bg-paw" viewBox="0 0 33 32">
<path fill="#fffaf3" style="fill: var(--color5, #fffaf3)" d="M17.231 16.5c1.808 2.111 0.588 4.231 0.65 7.651 0.068 4.976-2.525 6.534-4.48 5.216-1.927-1.247-1.594-4.376-3.325-6.106-1.624-1.852-4.603-1.724-5.71-3.852-1.078-2.057 0.628-4.437 5.538-3.978 3.283 0.329 5.383-0.991 7.327 1.069z"></path>
<path fill="#fffaf3" style="fill: var(--color5, #fffaf3)" d="M22.9 19.884c-2.525 0.211-4.3 1.802-4.104 3.442s2.635 2.717 5.131 2.436c2.525-0.211 4.329-1.732 4.104-3.442s-2.606-2.647-5.131-2.436z"></path>
<path fill="#fffaf3" style="fill: var(--color5, #fffaf3)" d="M13.87 10.218c-0.32 2.518-1.844 4.133-3.433 3.735s-2.636-2.959-2.222-5.43c0.32-2.518 1.844-4.133 3.433-3.735s2.636 2.959 2.222 5.43z"></path>
<path fill="#fffaf3" style="fill: var(--color5, #fffaf3)" d="M22.55 12.041c-2.257 1.437-3.491 3.714-2.518 5.298s3.632 1.684 5.888 0.246c2.257-1.437 3.491-3.714 2.518-5.298s-3.631-1.684-5.888-0.246z"></path>
<path fill="#fffaf3" style="fill: var(--color5, #fffaf3)" d="M22.218 10.984c-1.496 2.123-3.738 2.772-5.116 1.642s-1.134-3.73 0.362-5.852c1.496-2.122 3.738-2.772 5.116-1.642s1.134 3.73-0.362 5.852z"></path>
</symbol>
<symbol id="icon-hero-bg" viewBox="0 0 57 32">
<path fill="#fffaf3" style="fill: var(--color5, #fffaf3)" d="M47.139 5.647c-16.182 1.724-53.615-9.347-50.881-4.332s3.402 2.608 3.402 2.608l-4.533 22.033c0 0 11.765 4.991 11.845 0.782s22.337 4.431 34.445 5.22c12.108 0.789 18.245-9.765 14.536-8.983s7.367-19.052-8.815-17.328z"></path>
</symbol>
<symbol id="icon-arrow" viewBox="0 0 41 32">
<path fill="#fcb62a" style="fill: var(--color2, #fcb62a)" d="M8.173 25.125c1.281-8.416 8.275-15.263 15.398-15.252 0.042 0.215 0.135 0.486 0.067 0.694-1.148 3.54 0.383 6.288 2.864 8.723 1.91 1.922 4.115 3.49 6.752 4.288 0.755 0.205 1.509 0.411 2.328 0.461 2.999 0.236 4.577-1.366 4.427-4.295-0.099-1.97-0.984-3.617-2.207-5.126-2.086-2.623-4.815-4.595-8.019-5.959-0.642-0.252-1.284-0.503-2.193-0.877 3.11-3.367 7.32-4.119 11.348-5.465-0.71-0.043-1.413-0.193-2.129-0.13-3.706 0.57-7.171 1.685-9.953 4.17-0.809 0.694-1.552 1.179-2.753 1.106-4.643-0.231-8.533 1.549-11.794 4.695-2.445 2.346-4.312 5.099-5.597 8.206-0.321 0.777-0.643 1.553-1.212 2.793-1.495-2.427-2.792-4.524-4.088-6.621-0.167 0.043-0.337 0.139-0.504 0.182-0.080 0.42-0.277 0.939-0.135 1.319 0.654 1.845 1.309 3.69 2.075 5.489 0.722 1.637 1.556 3.227 2.278 4.864 0.725 1.584 1.576 2.008 2.691 0.802 1.934-2.059 3.659-4.289 5.439-6.517 0.238-0.304 0.055-0.899 0.029-1.379-0.552 0.072-1.259-0.024-1.606 0.273-1.217 1.094-2.22 2.254-3.505 3.555zM25.815 9.903c5.295 1.226 9.295 3.913 11.689 8.678 0.484 1.038 0.844 2.335-0.188 3.068-0.687 0.489-2.004 0.515-2.926 0.352-3.516-0.746-6.129-2.817-8.264-5.549-1.47-1.948-1.838-3.988-0.312-6.549z"></path>
</symbol>
<symbol id="icon-hero-paw" viewBox="0 0 32 32">
<path d="M15.062 15.601c1.657 2.266 4.052 1.189 7.373 1.886 4.85 0.933 6.756-1.437 5.865-3.741-0.863-2.209-3.895-2.275-5.378-4.286s-0.688-5.165-2.499-6.657-4.533-0.206-5.022 4.921c-0.298 3.513-1.907 5.581-0.339 7.875z"></path>
<path d="M17.637 22.272c0.701-2.482 2.596-4.217 4.114-3.677s2.254 2.972 1.493 5.576c-0.701 2.482-2.596 4.217-4.114 3.677s-2.166-3.001-1.493-5.576z"></path>
<path d="M9.682 11.194c2.507 0.016 4.475-1.432 4.434-3.159s-2.098-3.116-4.577-3.039c-2.507-0.016-4.475 1.432-4.434 3.159 0.013 1.634 2.069 3.023 4.577 3.039z"></path>
<path d="M9.878 20.409c1.877-2.020 4.445-2.74 5.709-1.523s0.783 3.905-1.093 5.925c-1.877 2.020-4.445 2.74-5.709 1.523-1.173-1.246-0.755-3.813 1.093-5.925z"></path>
<path d="M9.143 19.082c2.405-1.273 3.814-3.534 3.014-5.19-0.772-1.564-3.348-1.846-5.845-0.544-2.405 1.273-3.814 3.534-3.014 5.19 0.772 1.564 3.439 1.817 5.845 0.544z"></path>
</symbol>
<symbol id="icon-black-dog-bg" viewBox="0 0 31 32">
<path fill="#ff9f0e" style="fill: var(--color3, #ff9f0e)" d="M15.812 0.002c4.396-0.115 7.526 3.934 10.428 7.245 2.652 3.026 4.805 6.431 5.077 10.448 0.293 4.318-0.364 9.057-3.557 11.971-3.111 2.839-7.744 2.378-11.948 2.178-3.927-0.186-7.937-0.635-10.868-3.26-3.083-2.761-5.124-6.75-4.931-10.89 0.186-3.997 3.239-6.936 5.901-9.918 2.906-3.254 5.541-7.662 9.898-7.775z"></path>
</symbol>
<symbol id="icon-black-dog-bg-paws" viewBox="0 0 37 32">
<path fill="#fff" style="fill: var(--color6, #fff)" d="M18.918 0.771c-0.133-0.057-0.222 0.043-0.396 0.094-0.253 0.075-0.291 0.227-0.199 0.305s0.241 0.005 0.355 0.066c0.116 0.054 0.147 0.213 0.268 0.233 0.119 0.024 0.223-0.1 0.132-0.339-0.062-0.158-0.033-0.29-0.159-0.359z"></path>
<path fill="#fff" style="fill: var(--color6, #fff)" d="M18.629 0.499c0.016 0.137-0.038 0.262-0.118 0.279-0.085 0.017-0.166-0.080-0.181-0.217s0.038-0.262 0.118-0.279c0.085-0.017 0.166 0.080 0.181 0.217z"></path>
<path fill="#fff" style="fill: var(--color6, #fff)" d="M19.273 0.821c-0.121 0.065-0.185 0.178-0.148 0.254s0.165 0.088 0.286 0.023c0.121-0.065 0.185-0.178 0.148-0.254-0.041-0.076-0.169-0.089-0.286-0.023z"></path>
<path fill="#fff" style="fill: var(--color6, #fff)" d="M19.040 0.421c-0.040 0.14-0.148 0.232-0.233 0.207s-0.122-0.16-0.081-0.3c0.040-0.14 0.148-0.232 0.233-0.207s0.122 0.16 0.081 0.3z"></path>
<path fill="#fff" style="fill: var(--color6, #fff)" d="M19.124 0.444c-0.084 0.11-0.091 0.238-0.023 0.288 0.072 0.050 0.195 0.004 0.277-0.102 0.084-0.11 0.091-0.238 0.023-0.288-0.067-0.054-0.194-0.008-0.277 0.102z"></path>
<path fill="#fff" style="fill: var(--color6, #fff)" d="M3.377 17.786c-0.143 0.026-0.161 0.159-0.279 0.297-0.169 0.202-0.118 0.35 0.002 0.365s0.203-0.129 0.333-0.141c0.127-0.020 0.24 0.096 0.352 0.046 0.113-0.046 0.131-0.206-0.077-0.355-0.14-0.097-0.188-0.224-0.331-0.212z"></path>
<path fill="#fff" style="fill: var(--color6, #fff)" d="M2.985 17.72c0.089 0.105 0.113 0.239 0.056 0.298-0.061 0.061-0.182 0.024-0.271-0.081s-0.113-0.239-0.056-0.298c0.061-0.061 0.182-0.024 0.271 0.081z"></path>
<path fill="#fff" style="fill: var(--color6, #fff)" d="M3.7 17.632c-0.065 0.121-0.056 0.251 0.017 0.293s0.186-0.018 0.251-0.139c0.065-0.121 0.056-0.251-0.017-0.293-0.077-0.041-0.19 0.020-0.251 0.139z"></path>
<path fill="#fff" style="fill: var(--color6, #fff)" d="M3.285 17.428c0.044 0.139 0.005 0.275-0.080 0.302s-0.19-0.066-0.233-0.205c-0.044-0.139-0.005-0.275 0.080-0.302s0.19 0.066 0.233 0.205z"></path>
<path fill="#fff" style="fill: var(--color6, #fff)" d="M3.367 17.401c-0.009 0.138 0.056 0.249 0.14 0.252 0.088 0.002 0.165-0.104 0.175-0.238 0.009-0.138-0.056-0.249-0.14-0.252-0.086-0.007-0.166 0.1-0.175 0.238z"></path>
<path fill="#fff" style="fill: var(--color6, #fff)" d="M33.55 23.558c-0.143 0.026-0.161 0.159-0.279 0.297-0.169 0.202-0.118 0.35 0.002 0.365s0.203-0.129 0.333-0.141c0.127-0.020 0.24 0.096 0.352 0.046 0.113-0.046 0.131-0.206-0.077-0.355-0.14-0.097-0.188-0.224-0.331-0.212z"></path>
<path fill="#fff" style="fill: var(--color6, #fff)" d="M33.159 23.492c0.089 0.105 0.113 0.239 0.056 0.298-0.061 0.061-0.182 0.024-0.271-0.081s-0.113-0.239-0.056-0.298c0.061-0.061 0.182-0.024 0.271 0.081z"></path>
<path fill="#fff" style="fill: var(--color6, #fff)" d="M33.874 23.404c-0.065 0.121-0.056 0.251 0.017 0.293s0.186-0.018 0.251-0.139c0.065-0.121 0.056-0.251-0.017-0.293-0.077-0.041-0.19 0.020-0.251 0.139z"></path>
<path fill="#fff" style="fill: var(--color6, #fff)" d="M33.458 23.199c0.044 0.139 0.005 0.275-0.080 0.302s-0.19-0.066-0.233-0.205c-0.044-0.139-0.005-0.275 0.080-0.302s0.19 0.066 0.233 0.205z"></path>
<path fill="#fff" style="fill: var(--color6, #fff)" d="M33.541 23.172c-0.009 0.138 0.056 0.249 0.14 0.252 0.088 0.002 0.165-0.104 0.175-0.238 0.009-0.138-0.056-0.249-0.14-0.252-0.086-0.007-0.166 0.1-0.175 0.238z"></path>
<path fill="#fff" style="fill: var(--color6, #fff)" d="M24.783 5.512c-0.143 0.026-0.161 0.159-0.279 0.297-0.169 0.202-0.118 0.35 0.002 0.365s0.203-0.129 0.333-0.141c0.127-0.020 0.24 0.096 0.352 0.046 0.113-0.046 0.131-0.206-0.077-0.355-0.14-0.097-0.188-0.224-0.331-0.212z"></path>
<path fill="#fff" style="fill: var(--color6, #fff)" d="M24.392 5.446c0.089 0.105 0.113 0.239 0.056 0.298-0.061 0.061-0.182 0.024-0.271-0.081s-0.113-0.239-0.056-0.298c0.061-0.061 0.182-0.024 0.271 0.081z"></path>
<path fill="#fff" style="fill: var(--color6, #fff)" d="M25.107 5.358c-0.065 0.121-0.056 0.251 0.017 0.293s0.186-0.018 0.251-0.139c0.065-0.121 0.056-0.251-0.017-0.293-0.077-0.041-0.19 0.019-0.251 0.139z"></path>
<path fill="#fff" style="fill: var(--color6, #fff)" d="M24.691 5.154c0.044 0.139 0.005 0.275-0.080 0.302s-0.19-0.066-0.233-0.205c-0.044-0.139-0.005-0.275 0.080-0.302s0.19 0.066 0.233 0.205z"></path>
<path fill="#fff" style="fill: var(--color6, #fff)" d="M24.774 5.127c-0.009 0.138 0.056 0.249 0.14 0.252 0.088 0.002 0.165-0.104 0.175-0.238 0.009-0.138-0.056-0.249-0.14-0.252-0.086-0.008-0.166 0.1-0.175 0.238z"></path>
<path fill="#fff" style="fill: var(--color6, #fff)" opacity="0.96" d="M4.758 24.134c-0.946-0.672-1.808-0.032-3.256 0.070-2.101 0.167-2.659 1.289-2.070 2.055s1.877 0.439 2.668 1.112c0.82 0.613 0.795 1.912 1.705 2.268 0.895 0.386 1.91-0.407 1.596-2.429-0.225-1.342 0.226-2.328-0.643-3.076z"></path>
<path fill="#fff" style="fill: var(--color6, #fff)" opacity="0.96" d="M2.945 21.527c-0.106 1.096-0.731 1.985-1.392 1.989-0.69-0.011-1.161-0.905-1.055-2.001s0.731-1.985 1.392-1.989c0.69 0.011 1.161 0.905 1.055 2.001z"></path>
<path fill="#fff" style="fill: var(--color6, #fff)" opacity="0.96" d="M7.45 25.12c-1.057 0.303-1.748 1.085-1.581 1.737s1.145 0.962 2.202 0.659 1.748-1.085 1.581-1.737c-0.197-0.667-1.175-0.977-2.201-0.659z"></path>
<path fill="#fff" style="fill: var(--color6, #fff)" opacity="0.96" d="M6.293 21.6c-0.549 1.027-1.542 1.57-2.173 1.233s-0.684-1.454-0.136-2.481c0.549-1.027 1.542-1.57 2.173-1.233s0.684 1.454 0.136 2.481z"></path>
<path fill="#fff" style="fill: var(--color6, #fff)" opacity="0.96" d="M6.91 21.92c-0.838 0.721-1.109 1.711-0.658 2.212 0.481 0.516 1.518 0.358 2.341-0.334 0.838-0.721 1.109-1.711 0.658-2.212-0.436-0.531-1.503-0.387-2.341 0.334z"></path>
<path fill="#fff" style="fill: var(--color6, #fff)" opacity="0.96" d="M30.916 12.809c0.946-0.672 1.808-0.032 3.256 0.070 2.101 0.167 2.659 1.289 2.070 2.055s-1.877 0.439-2.668 1.112c-0.821 0.613-0.795 1.912-1.705 2.268-0.895 0.386-1.91-0.407-1.596-2.429 0.225-1.342-0.226-2.328 0.643-3.076z"></path>
<path fill="#fff" style="fill: var(--color6, #fff)" opacity="0.96" d="M32.729 10.203c0.106 1.096 0.731 1.985 1.392 1.989 0.69-0.011 1.161-0.905 1.055-2.001s-0.731-1.985-1.392-1.989c-0.69 0.011-1.161 0.905-1.055 2.001z"></path>
<path fill="#fff" style="fill: var(--color6, #fff)" opacity="0.96" d="M28.224 13.795c1.057 0.303 1.748 1.085 1.581 1.737s-1.145 0.962-2.202 0.659-1.748-1.085-1.581-1.737c0.197-0.667 1.175-0.977 2.201-0.659z"></path>
<path fill="#fff" style="fill: var(--color6, #fff)" opacity="0.96" d="M29.381 10.276c0.549 1.027 1.542 1.57 2.173 1.233s0.684-1.454 0.136-2.481c-0.549-1.027-1.542-1.57-2.173-1.233s-0.684 1.454-0.136 2.481z"></path>
<path fill="#fff" style="fill: var(--color6, #fff)" opacity="0.96" d="M28.764 10.595c0.838 0.721 1.109 1.711 0.658 2.212-0.481 0.516-1.518 0.358-2.341-0.334-0.838-0.721-1.109-1.711-0.658-2.212 0.436-0.531 1.503-0.387 2.341 0.334z"></path>
<path fill="#fff" style="fill: var(--color6, #fff)" d="M5.069 31.134c-0.145 0.013-0.175 0.144-0.304 0.27-0.186 0.186-0.149 0.338-0.031 0.363s0.214-0.11 0.344-0.11c0.128-0.008 0.231 0.118 0.346 0.078 0.116-0.036 0.149-0.194-0.045-0.36-0.13-0.11-0.167-0.24-0.31-0.241z"></path>
<path fill="#fff" style="fill: var(--color6, #fff)" d="M4.686 31.032c0.079 0.113 0.091 0.248 0.029 0.302-0.067 0.055-0.184 0.008-0.263-0.105s-0.091-0.248-0.029-0.302c0.067-0.055 0.184-0.008 0.263 0.105z"></path>
<path fill="#fff" style="fill: var(--color6, #fff)" d="M5.406 31.009c-0.076 0.114-0.078 0.245-0.010 0.293s0.187-0.001 0.263-0.116c0.076-0.114 0.078-0.245 0.010-0.293-0.073-0.047-0.191 0.002-0.263 0.116z"></path>
<path fill="#fff" style="fill: var(--color6, #fff)" d="M5.010 30.768c0.031 0.142-0.020 0.274-0.107 0.293s-0.183-0.083-0.214-0.225c-0.031-0.142 0.020-0.274 0.107-0.293s0.183 0.083 0.214 0.225z"></path>
<path fill="#fff" style="fill: var(--color6, #fff)" d="M5.095 30.748c-0.021 0.137 0.033 0.253 0.117 0.264 0.088 0.010 0.173-0.089 0.196-0.222 0.021-0.136-0.033-0.253-0.117-0.264-0.085-0.015-0.174 0.085-0.196 0.222z"></path>
<path fill="#fff" style="fill: var(--color6, #fff)" d="M3.797 14.122c-0.065-0.047-0.126-0.003-0.226 0.003-0.146 0.010-0.186 0.088-0.145 0.141s0.13 0.032 0.184 0.079c0.057 0.043 0.054 0.133 0.117 0.159 0.062 0.027 0.133-0.027 0.113-0.167-0.015-0.093 0.017-0.161-0.042-0.214z"></path>
<path fill="#fff" style="fill: var(--color6, #fff)" d="M3.673 13.94c-0.008 0.076-0.052 0.137-0.098 0.137-0.048-0.001-0.080-0.064-0.072-0.14s0.052-0.137 0.098-0.137c0.048 0.001 0.080 0.064 0.072 0.14z"></path>
<path fill="#fff" style="fill: var(--color6, #fff)" d="M3.984 14.193c-0.074 0.020-0.122 0.074-0.111 0.119s0.079 0.068 0.152 0.047c0.074-0.020 0.122-0.074 0.111-0.12-0.013-0.046-0.081-0.069-0.152-0.047z"></path>
<path fill="#fff" style="fill: var(--color6, #fff)" d="M3.906 13.947c-0.039 0.071-0.108 0.108-0.152 0.084s-0.046-0.101-0.008-0.172c0.039-0.071 0.108-0.108 0.152-0.084s0.046 0.101 0.008 0.172z"></path>
<path fill="#fff" style="fill: var(--color6, #fff)" d="M3.949 13.97c-0.059 0.050-0.078 0.118-0.047 0.153 0.033 0.036 0.105 0.026 0.163-0.022 0.059-0.049 0.078-0.118 0.047-0.153-0.030-0.037-0.104-0.028-0.163 0.021z"></path>
<path fill="#fff" style="fill: var(--color6, #fff)" d="M24.166 1.206c-0.065-0.047-0.126-0.004-0.226 0.003-0.146 0.010-0.186 0.088-0.145 0.141s0.13 0.032 0.184 0.079c0.057 0.043 0.054 0.133 0.117 0.159 0.062 0.027 0.133-0.027 0.113-0.167-0.015-0.093 0.017-0.161-0.042-0.214z"></path>
<path fill="#fff" style="fill: var(--color6, #fff)" d="M24.042 1.024c-0.008 0.076-0.052 0.137-0.098 0.137-0.048-0.001-0.080-0.064-0.072-0.14s0.052-0.137 0.098-0.137c0.048 0.001 0.080 0.064 0.072 0.14z"></path>
<path fill="#fff" style="fill: var(--color6, #fff)" d="M24.352 1.276c-0.074 0.020-0.122 0.074-0.111 0.119s0.079 0.068 0.152 0.047c0.074-0.020 0.122-0.074 0.111-0.119-0.013-0.046-0.081-0.069-0.152-0.047z"></path>
<path fill="#fff" style="fill: var(--color6, #fff)" d="M24.274 1.031c-0.039 0.071-0.108 0.108-0.152 0.084s-0.046-0.101-0.008-0.172c0.039-0.071 0.108-0.108 0.152-0.084s0.046 0.101 0.008 0.172z"></path>
<path fill="#fff" style="fill: var(--color6, #fff)" d="M24.317 1.054c-0.059 0.049-0.078 0.118-0.047 0.153 0.033 0.036 0.105 0.026 0.163-0.022 0.059-0.049 0.078-0.118 0.047-0.153-0.030-0.037-0.104-0.028-0.163 0.022z"></path>
<path fill="#fff" style="fill: var(--color6, #fff)" d="M2.461 23.857c-0.080 0.007-0.097 0.080-0.169 0.151-0.103 0.104-0.082 0.188-0.016 0.202s0.119-0.062 0.191-0.062c0.071-0.005 0.128 0.065 0.192 0.043 0.065-0.020 0.082-0.108-0.025-0.2-0.072-0.061-0.093-0.133-0.173-0.133z"></path>
<path fill="#fff" style="fill: var(--color6, #fff)" d="M2.247 23.801c0.044 0.063 0.051 0.138 0.016 0.168-0.037 0.031-0.102 0.005-0.146-0.058s-0.051-0.138-0.016-0.168c0.037-0.031 0.102-0.005 0.146 0.058z"></path>
<path fill="#fff" style="fill: var(--color6, #fff)" d="M2.647 23.787c-0.042 0.064-0.043 0.136-0.005 0.163s0.104-0.001 0.146-0.065 0.043-0.136 0.005-0.163c-0.041-0.026-0.106 0.002-0.146 0.065z"></path>
<path fill="#fff" style="fill: var(--color6, #fff)" d="M2.427 23.654c0.017 0.079-0.010 0.152-0.059 0.163s-0.102-0.046-0.119-0.125c-0.017-0.079 0.010-0.152 0.059-0.163s0.102 0.046 0.119 0.125z"></path>
<path fill="#fff" style="fill: var(--color6, #fff)" d="M2.474 23.643c-0.012 0.076 0.019 0.14 0.065 0.146 0.049 0.005 0.096-0.050 0.108-0.123 0.012-0.076-0.019-0.14-0.065-0.146-0.047-0.008-0.097 0.047-0.108 0.123z"></path>
<path fill="#fff" style="fill: var(--color6, #fff)" d="M35.366 28.474c0.080 0.007 0.097 0.080 0.169 0.151 0.103 0.104 0.082 0.188 0.016 0.202s-0.119-0.062-0.191-0.062c-0.071-0.005-0.128 0.065-0.192 0.043-0.065-0.020-0.082-0.108 0.026-0.2 0.072-0.061 0.093-0.133 0.173-0.133z"></path>
<path fill="#fff" style="fill: var(--color6, #fff)" d="M35.579 28.419c-0.044 0.063-0.051 0.138-0.016 0.168 0.037 0.031 0.102 0.005 0.146-0.058s0.051-0.138 0.016-0.168c-0.037-0.031-0.102-0.005-0.146 0.058z"></path>
<path fill="#fff" style="fill: var(--color6, #fff)" d="M35.179 28.405c0.042 0.064 0.043 0.136 0.005 0.163s-0.104-0.001-0.146-0.065c-0.042-0.064-0.043-0.136-0.005-0.163 0.041-0.026 0.106 0.002 0.146 0.065z"></path>
<path fill="#fff" style="fill: var(--color6, #fff)" d="M35.399 28.271c-0.017 0.079 0.010 0.152 0.059 0.163s0.102-0.046 0.119-0.125c0.017-0.079-0.010-0.152-0.059-0.163s-0.102 0.046-0.119 0.125z"></path>
<path fill="#fff" style="fill: var(--color6, #fff)" d="M35.352 28.26c0.012 0.076-0.019 0.14-0.065 0.146-0.049 0.006-0.096-0.050-0.108-0.123-0.012-0.076 0.019-0.14 0.065-0.146 0.047-0.008 0.097 0.047 0.108 0.123z"></path>
<path fill="#fff" style="fill: var(--color6, #fff)" d="M14.662 3.473c-0.080 0.009-0.095 0.082-0.165 0.155-0.101 0.106-0.078 0.19-0.012 0.202s0.117-0.064 0.189-0.066c0.071-0.006 0.13 0.062 0.193 0.038 0.064-0.022 0.080-0.11-0.030-0.2-0.074-0.059-0.096-0.131-0.176-0.129z"></path>
<path fill="#fff" style="fill: var(--color6, #fff)" d="M14.447 3.423c0.045 0.062 0.054 0.136 0.020 0.167-0.036 0.031-0.102 0.007-0.147-0.054s-0.054-0.137-0.020-0.167c0.036-0.031 0.102-0.007 0.147 0.054z"></path>
<path fill="#fff" style="fill: var(--color6, #fff)" d="M14.846 3.399c-0.041 0.065-0.040 0.137-0.001 0.163s0.104-0.003 0.144-0.068c0.041-0.065 0.040-0.137 0.001-0.163-0.041-0.025-0.106 0.004-0.144 0.068z"></path>
<path fill="#fff" style="fill: var(--color6, #fff)" d="M14.623 3.271c0.019 0.079-0.007 0.153-0.055 0.164s-0.103-0.043-0.122-0.122c-0.019-0.079 0.007-0.153 0.055-0.164s0.103 0.043 0.122 0.122z"></path>
<path fill="#fff" style="fill: var(--color6, #fff)" d="M14.67 3.259c-0.010 0.076 0.022 0.14 0.069 0.145 0.049 0.004 0.095-0.052 0.105-0.126 0.010-0.076-0.022-0.14-0.069-0.145-0.047-0.007-0.096 0.050-0.105 0.126z"></path>
<path fill="#fff" style="fill: var(--color6, #fff)" d="M36.258 18.165c-0.128 0.068-0.105 0.2-0.175 0.367-0.099 0.244-0.005 0.369 0.113 0.347s0.154-0.185 0.274-0.235c0.114-0.057 0.258 0.019 0.349-0.063 0.093-0.078 0.062-0.236-0.182-0.315-0.162-0.050-0.247-0.156-0.38-0.101z"></path>
<path fill="#fff" style="fill: var(--color6, #fff)" d="M35.865 18.221c0.116 0.073 0.181 0.193 0.144 0.267-0.040 0.076-0.166 0.079-0.283 0.005s-0.181-0.193-0.144-0.267c0.040-0.076 0.166-0.079 0.283-0.005z"></path>
<path fill="#fff" style="fill: var(--color6, #fff)" d="M36.519 17.92c-0.026 0.135 0.023 0.256 0.105 0.274s0.172-0.074 0.197-0.209-0.023-0.256-0.105-0.274c-0.085-0.015-0.175 0.076-0.197 0.209z"></path>
<path fill="#fff" style="fill: var(--color6, #fff)" d="M36.061 17.851c0.084 0.119 0.089 0.26 0.016 0.312s-0.201-0.005-0.285-0.124c-0.084-0.119-0.089-0.26-0.016-0.312s0.201 0.005 0.285 0.124z"></path>
<path fill="#fff" style="fill: var(--color6, #fff)" d="M36.131 17.8c0.033 0.134 0.129 0.22 0.21 0.198 0.085-0.025 0.125-0.149 0.094-0.28-0.033-0.134-0.129-0.22-0.21-0.198-0.084 0.019-0.128 0.146-0.094 0.28z"></path>
</symbol>
<symbol id="icon-light-dog-bg" viewBox="0 0 29 32">
<path fill="#f1f3ff" style="fill: var(--color7, #f1f3ff)" d="M1.372 8.296c2.253-3.024 4.926-5.602 6.888-6.821s5.334-1.959 7.599-1.11 5.526 5.867 6.162 6.191c0.636 0.323 3.971 3.881 5.622 5.576s2.037 7.073-0.207 10.469c-2.245 3.397-6.601 0.983-14.539 6.441s-11.369 2.91-10.819-4.564-4.379-11.25-0.705-16.182z"></path>
</symbol>
<symbol id="icon-bowl-icon" viewBox="0 0 48 32">
<path fill="#839aa9" style="fill: var(--color1, #839aa9)" d="M45.37 13.333c-0.052-1.992-2.005-3.973-5.918-5.333 0.267-0.547 0-0.726 0-1.333 0-2.356-2.048-4.667-4.603-4.667-0.576 0-0.778 0.473-1.315 0.667-0.86-0.97-2.435-1.333-3.945-1.333-0.684 0-1.354-0.232-1.973 0-1.076-0.891-2.414-1.333-3.945-1.333-2.063 0-4.235 1.21-5.26 2.667-2.426-0.265-4.432 0.263-5.26 2-2.034 0.036-3.69 1.536-3.945 3.333-4.239 1.378-6.52 3.252-6.575 5.333l-2.63 10v0.667c0 4.649 10.871 8 24.329 8s23.671-3.352 23.671-8l-2.63-10.667zM13.151 6c0.034 0-0.034-0.002 0 0h0.658v-0.667c0.521-1.382 2.061-2 3.945-2 0.265 0 0.383-0.041 0.658 0h0.658c0.832-1.345 2.721-2.667 4.603-2.667 1.422 0 2.353 0.473 3.288 1.333l0.658 0.667v-0.667c0.578-0.252 1.308 0 1.973 0 1.378 0 2.617 0.424 3.288 1.333v0h0.658c0.52-0.227 0.747 0 1.315 0 2.090 0 3.945 1.449 3.945 3.333 0 0.618-0.308 0.805-0.658 1.333v0c-0.001 0.001 0.001 0.665 0 0.667-0.027 0.040 0.028-0.039 0 0v0 0.667h0.658c1.651 0.228 2.63 1.13 2.63 2 0 0.523-0.316 0.431-0.658 0.667-0.055 0.038 0.048-0.029 0 0l-1.315 0.667 1.315 0.667c0.742 0.345 0.658 0.742 0.658 1.333 0 0.881-1.677 2-3.288 2v0 0c-0.735 0.252-1.197 0.461-1.973 0.667-3.297 0.868-7.208 1.333-11.178 1.333-6.791 0-12.484-1.499-14.466-2-0.457-0.115-0.645 0.004-0.658 0v0c-1.804 0-3.288-1.716-3.288-3.333s1.484-2.667 3.288-2.667c0.113 0-0.109-0.010 0 0h0.658v-0.667c-0.212-0.39-0.658-0.908-0.658-1.333 0-0.025-0.002 0.025 0 0v0c0.168-1.438 1.617-2.667 3.288-2.667zM9.205 9.333c0.002 0.018-0.003-0.018 0 0 0.004 0.028-0.004-0.028 0 0 0.025 0.147-0.044-0.143 0 0 0.001 0.002-0.001-0.002 0 0-2.144 0.129-3.945 1.996-3.945 4 0 2.069 2.361 3.971 4.603 4 0.103 0.029 0.304-0.089 0.658 0 2.025 0.512 7.59 2 14.466 2 0.001 0-0.001 0 0 0 4.966 0 9.224-0.664 13.151-2 1.944-0.027 4.603-1.159 4.603-2.667 0-0.185 0.048-0.49 0-0.667-0.143-0.529-0.799-0.962-1.315-1.333 0.512-0.46 0.658-0.755 0.658-1.333 0-0.041 0.003-0.625 0-0.667-0.002-0.035 0.004 0.033 0 0-0.005-0.040 0.008 0.039 0 0-0.008-0.038 0.010 0.038 0 0-0.002-0.009 0.002 0.009 0 0 1.58 0.945 2.63 1.619 2.63 2.667 0 3.18-8.721 6.667-21.041 6.667s-20.384-3.487-20.384-6.667c0-1.647 2.224-2.757 5.918-4zM23.671 31.333c-12.498 0-22.924-3.323-23.014-7.333l2.63-8.667c2.022 3.392 9.916 6 20.384 6s19.020-2.607 21.041-6l2.63 8.667c-0.090 4.010-11.173 7.333-23.671 7.333z"></path>
<path fill="#839aa9" style="fill: var(--color1, #839aa9)" d="M30.904 24c0-1.13-0.88-2-1.973-2-1.057 0-1.921 0.919-1.973 2h-6.575c-0.052-1.081-0.915-2-1.973-2-1.091 0-1.973 0.87-1.973 2 0 0.659 0.189 0.959 0.658 1.333-0.468 0.375-0.658 1.342-0.658 2 0 1.13 0.881 2 1.973 2 1.058 0 1.921-0.919 1.973-2h6.575c0.052 1.081 0.916 2 1.973 2 1.092 0 1.973-0.87 1.973-2 0-0.658-0.19-1.625-0.658-2 0.467-0.375 0.658-0.674 0.658-1.333zM30.247 27.333c0 0.658-0.679 1.333-1.315 1.333-0.635 0-1.315-0.675-1.315-1.333 0-0.079-0.016 0.079 0 0v-0.667h-7.89v0.667c0.016 0.079 0-0.079 0 0 0 0.658-0.679 1.333-1.315 1.333s-1.315-0.675-1.315-1.333c0-0.657 0.679-1.333 1.315-1.333v-0.667c-0.636 0-1.315-0.677-1.315-1.333 0-0.658 0.679-1.333 1.315-1.333s1.315 0.675 1.315 1.333c0 0.080 0.016-0.079 0 0v0.667h7.89v-0.667c-0.016-0.080 0 0.079 0 0 0-0.658 0.68-1.333 1.315-1.333 0.636 0 1.315 0.675 1.315 1.333 0 0.657-0.679 1.333-1.315 1.333v0.667c0.637-0.001 1.315 0.676 1.315 1.333z"></path>
</symbol>
<symbol id="icon-play-video-icon" viewBox="0 0 32 32">
<path fill="#fff" style="fill: var(--color6, #fff)" d="M22.809 15.271c-0.019 0.197-0.138 0.412-0.414 0.631-2.703 2.145-5.406 4.29-8.109 6.434-0.577 0.458-1.947 0.565-1.947-0.513 0-3.969 0-7.938 0-11.906 0-0.975 1.47-1.215 2.058-0.818 2.703 1.824 5.406 3.648 8.109 5.472 0.31 0.209 0.377 0.459 0.302 0.7zM32 18.654c-0.857 20.541-35.471 16.286-31.715-5.337 1.576-9.073 9.11-13.845 17.388-13.27 9.318 0.647 14.158 9.123 14.326 18.471 0 0.024-0.015 0.043-0.018 0.066 0.003 0.025 0.020 0.042 0.019 0.070zM30.263 18.92c-0.141-6.617-2.487-13.763-8.542-16.608-8.024-3.77-17.479 0.676-19.518 9.838-1.824 8.194 2.232 15.459 9.654 18.087 7.911 2.801 17.973-1.607 18.406-11.318z"></path>
</symbol>
<symbol id="icon-light-dog-paw" viewBox="0 0 36 32">
<path fill="#839aa9" style="fill: var(--color1, #839aa9)" d="M16.631 15.867c-2.767 0.53-3.034 2.897-5.217 5.417-3.158 3.678-2.012 6.24 0.379 6.388 2.323 0.184 3.906-2.411 6.373-2.701 2.457-0.444 4.755 1.502 6.969 0.553 2.147-0.912 2.423-3.681-1.801-6.182-2.839-1.655-3.859-3.888-6.703-3.475z"></path>
<path fill="#839aa9" style="fill: var(--color1, #839aa9)" d="M10.003 15.074c1.914 1.643 2.394 3.893 1.21 5.013s-3.786 0.655-5.633-1.025c-1.914-1.643-2.462-3.856-1.21-5.013s3.719-0.618 5.632 1.025z"></path>
<path fill="#839aa9" style="fill: var(--color1, #839aa9)" d="M23.372 13.016c-1.331 2.076-1.116 4.232 0.414 4.851s3.801-0.599 5.026-2.694c1.331-2.076 1.116-4.232-0.414-4.851s-3.801 0.599-5.026 2.694z"></path>
<path fill="#839aa9" style="fill: var(--color1, #839aa9)" d="M15.548 9.357c0.899 2.375 0.192 4.794-1.601 5.429s-4.033-0.859-4.932-3.233c-0.899-2.375-0.192-4.795 1.601-5.429s4.033 0.859 4.932 3.234z"></path>
<path fill="#839aa9" style="fill: var(--color1, #839aa9)" d="M16.147 8.872c-0.109 2.45 1.241 4.35 3.038 4.313s3.317-2.009 3.425-4.459c0.109-2.45-1.241-4.35-3.038-4.313s-3.317 2.009-3.425 4.459z"></path>
</symbol>
<symbol id="icon-learn-more-bg" viewBox="0 0 42 32">
<path fill="#839aa9" style="fill: var(--color1, #839aa9)" d="M0.098 13.567c0 0-1.927-7.847 11.323-12.616s38.908 9.434 27.705 19.715c-11.203 10.281-17.346 14.203-27.705 9.116s-11.323-16.214-11.323-16.214z"></path>
</symbol>
<symbol id="icon-grooming-icon" viewBox="0 0 32 32">
<path d="M21.1 9.363c-0.085-0.371-0.316-0.65-0.633-0.765-0.023-0.008-0.047-0.009-0.070-0.016 0.228-1.036 0.87-4.801-1.234-7.004-1.219-1.277-3.121-1.782-5.651-1.504-0.046-0.019-0.097-0.030-0.149-0.031-1.987-0.064-3.508 0.484-4.504 1.626-1.953 2.238-1.246 6.013-1.042 6.908-0.030 0.008-0.061 0.010-0.090 0.020-0.318 0.115-0.549 0.394-0.633 0.765-0.076 0.331-0.033 0.712 0.118 1.075 0.278 0.665 0.841 1.090 1.381 1.090 0.058 0 0.115-0.005 0.172-0.015 0.458 1.357 1.223 2.486 2.487 3.179v1.392h-0.656v3.925h7.002v-3.925h-0.657v-1.383c1.266-0.692 2.031-1.824 2.489-3.187 0.056 0.010 0.113 0.014 0.17 0.014 0.54 0 1.103-0.425 1.381-1.089 0.151-0.363 0.194-0.745 0.118-1.075zM7.814 10.22c-0.105-0.251-0.137-0.518-0.088-0.732 0.039-0.169 0.125-0.289 0.236-0.33 0.030-0.011 0.063-0.016 0.098-0.016 0.063 0 0.133 0.018 0.205 0.051 0.074 0.599 0.179 1.18 0.326 1.731-0.247-0.005-0.594-0.269-0.776-0.705zM17.312 16.684c-0.643 0.629-1.84 1.052-3.215 1.052s-2.573-0.424-3.215-1.052h0.694c0.178 0 0.323-0.135 0.323-0.301v-1.392c0.63 0.241 1.362 0.392 2.215 0.432 0.839-0.040 1.56-0.188 2.182-0.425v1.385c0 0.166 0.145 0.301 0.323 0.301h0.694zM19.296 8.874c-0.021 0.185-0.043 0.37-0.069 0.547-0.067 0.453-0.153 0.88-0.258 1.284-0.040 0.152-0.084 0.299-0.13 0.444-0.396 1.263-1.020 2.247-1.984 2.876-0.142 0.093-0.296 0.174-0.454 0.251-0.633 0.312-1.384 0.503-2.289 0.546-0.902-0.043-1.653-0.23-2.287-0.537-0.168-0.081-0.331-0.168-0.483-0.267-0.966-0.63-1.591-1.612-1.988-2.872-0.046-0.145-0.090-0.291-0.13-0.444-0.105-0.403-0.191-0.829-0.258-1.281-0.027-0.178-0.048-0.362-0.069-0.547-0.057-0.495-0.098-1.013-0.122-1.556 0.076-0.441 0.186-0.807 0.318-1.107 0.199-0.031 0.628-0.118 1.133-0.334 0.080 0.102 0.215 0.167 0.353 0.158 0.072-0.003 1.024-0.054 2.030-0.421-0.005 0.042-0.002 0.086 0.009 0.129 0.043 0.168 0.203 0.288 0.389 0.292 0.086 0.003 1.797 0.022 2.853-1.101 0.407 0.908 1.322 2.395 3.187 3.328l0.278 0.357c-0.009 0.087-0.020 0.17-0.030 0.256zM20.379 10.22c-0.182 0.435-0.527 0.699-0.774 0.704 0.146-0.552 0.25-1.132 0.324-1.731 0.072-0.033 0.142-0.050 0.205-0.050 0.035 0 0.068 0.005 0.098 0.016 0.152 0.055 0.213 0.23 0.236 0.33 0.049 0.214 0.016 0.481-0.089 0.732zM13.364 11.002v-0.843c0-0.166 0.145-0.301 0.323-0.301s0.323 0.135 0.323 0.301v0.775h0.497c0.178 0 0.323 0.135 0.323 0.301s-0.145 0.301-0.323 0.301h-0.57c-0.316 0-0.573-0.239-0.573-0.533zM11.819 9.069c0 0.323-0.282 0.585-0.629 0.585s-0.629-0.262-0.629-0.585c0-0.323 0.282-0.585 0.629-0.585s0.629 0.262 0.629 0.585zM17.633 9.069c0 0.323-0.282 0.585-0.629 0.585s-0.629-0.262-0.629-0.585c0-0.323 0.282-0.585 0.629-0.585s0.629 0.262 0.629 0.585zM15.679 12.854c0 0.485-0.817 0.658-1.582 0.658s-1.582-0.173-1.582-0.658c0-0.166 0.145-0.301 0.323-0.301 0.144 0 0.266 0.088 0.308 0.209 0.108 0.060 0.448 0.149 0.951 0.149s0.843-0.089 0.951-0.149c0.042-0.121 0.164-0.209 0.308-0.209 0.178 0 0.323 0.135 0.323 0.301zM31.891 22.231c-0.093-0.152-0.237-0.265-0.409-0.331 0.027-0.165 0-0.339-0.095-0.496-0.093-0.152-0.237-0.265-0.409-0.33 0.027-0.165 0-0.339-0.095-0.496s-0.243-0.267-0.409-0.33c0.027-0.165 0.001-0.34-0.095-0.496-0.11-0.18-0.288-0.308-0.502-0.363-0.212-0.054-0.437-0.029-0.63 0.073l-0.328 0.173c-0.062-0.095-0.145-0.18-0.246-0.252v-0.329h1.831c0.178 0 0.323-0.135 0.323-0.301s-0.145-0.301-0.323-0.301h-1.831v-0.301h1.831c0.178 0 0.323-0.135 0.323-0.301s-0.145-0.301-0.323-0.301h-1.831v-0.301h1.831c0.178 0 0.323-0.135 0.323-0.301s-0.145-0.301-0.323-0.301h-1.831v-0.301h1.831c0.178 0 0.323-0.135 0.323-0.301s-0.145-0.301-0.323-0.301h-1.831l0.002-0.301h1.829c0.178 0 0.323-0.135 0.323-0.301s-0.145-0.301-0.323-0.301h-1.829c-0.364 0-0.648 0.308-0.648 0.701v1.448c-0.028-0.342-0.164-0.685-0.404-0.98-0.59-0.728-1.602-0.947-2.253-0.489-0.34 0.239-0.512 0.615-0.519 1.023-0.424-0.105-0.861-0.054-1.2 0.184-0.327 0.23-0.519 0.603-0.526 1.023-0.006 0.389 0.141 0.789 0.415 1.127s0.648 0.579 1.052 0.68c0.135 0.034 0.27 0.050 0.402 0.050 0.295 0 0.573-0.082 0.799-0.241 0.021-0.015 0.037-0.035 0.057-0.051l1.014 1.131-0.366 0.734c-0.028 0.045-0.053 0.091-0.076 0.139l-2.131 1.125-3.636-5.555c-0.089-0.136-0.198-0.253-0.314-0.36-0.192-0.231-0.47-0.396-0.793-0.449-0.314-0.097-0.648-0.128-0.98-0.076v4.029c0.079 0.023 0.152 0.056 0.216 0.101 0.119 0.083 0.206 0.2 0.242 0.338l1.59 6.197v-2.518l1.211 1.851c0.385 0.588 1.058 0.914 1.75 0.914 0.343 0 0.69-0.080 1.008-0.249l3.88-2.048c0.016-0.008 0.028-0.020 0.044-0.029 0.030 0.002 0.061 0.006 0.091 0.006 0.252 0 0.508-0.059 0.743-0.183l0.729-0.385 0.045 0.050c0.147 0.164 0.407 0.192 0.591 0.063l0.407-0.286c0.134-0.094 0.185-0.254 0.148-0.409l0.317-0.168c0.193-0.102 0.331-0.267 0.39-0.467s0.031-0.407-0.079-0.586zM30.011 20.843l0.059-0.031c0.028-0.014 0.059-0.022 0.090-0.022 0.016 0 0.033 0.002 0.049 0.006 0.048 0.012 0.087 0.041 0.111 0.080 0.050 0.082 0.019 0.187-0.069 0.233l-0.846 0.447c-0.043 0.022-0.092 0.027-0.139 0.016s-0.087-0.041-0.111-0.080c-0.050-0.082-0.019-0.187 0.069-0.233l0.787-0.416zM28.973 20.375l0.008-0.016c0.006-0.012 0.008-0.025 0.013-0.037 0.006-0.014 0.010-0.028 0.015-0.043l0.556-0.294c0.028-0.015 0.059-0.022 0.090-0.022 0.016 0 0.033 0.002 0.049 0.006 0.048 0.012 0.087 0.041 0.111 0.080 0.031 0.051 0.028 0.11 0.002 0.159-0.016 0.030-0.038 0.057-0.071 0.075l-0.846 0.447c-0.035 0.018-0.075 0.022-0.115 0.018l0.187-0.373zM25.273 18.735c-0.156 0.109-0.355 0.082-0.46 0.056-0.216-0.054-0.43-0.196-0.587-0.389s-0.244-0.423-0.241-0.632c0.002-0.101 0.028-0.286 0.184-0.396 0.078-0.055 0.175-0.081 0.279-0.081 0.253 0 0.555 0.152 0.767 0.413 0.299 0.369 0.325 0.839 0.058 1.027zM25.946 17.194c-0.299-0.368-0.325-0.839-0.057-1.027 0.078-0.055 0.174-0.081 0.279-0.081 0.253 0 0.555 0.153 0.767 0.414 0.157 0.193 0.245 0.423 0.242 0.631-0.002 0.101-0.028 0.286-0.184 0.396s-0.355 0.082-0.459 0.056c-0.216-0.054-0.43-0.196-0.587-0.389zM26.778 19.61c-0.147-0.182-0.109-0.44 0.087-0.577s0.473-0.101 0.62 0.081c0.052 0.064 0.072 0.137 0.080 0.21-0.121 0.073-0.223 0.172-0.287 0.298l-0.070 0.141c-0.158 0.026-0.326-0.025-0.43-0.153zM29.319 23.741l-0.296 0.156c-0.413 0.219-0.942 0.083-1.177-0.301l-0.799-1.308c-0.114-0.187-0.143-0.403-0.082-0.61l0.004-0.007 0.896-1.795c0.023-0.045 0.085-0.075 0.162-0.081 0.057-0.005 0.121 0.001 0.187 0.030s0.113 0.071 0.145 0.114c0.007 0.010 0.016 0.019 0.021 0.029 0.027 0.050 0.034 0.1 0.015 0.138l-0.793 1.584c-0.013 0.025-0.015 0.052-0.020 0.078-0.023 0.13 0.042 0.263 0.177 0.322 0.044 0.019 0.090 0.028 0.136 0.028s0.090-0.012 0.132-0.029v1.428c0 0.166 0.145 0.301 0.323 0.301s0.323-0.135 0.323-0.301v-1.043l0.979 1.092-0.333 0.176zM29.91 22.382c-0.043 0.022-0.093 0.029-0.139 0.016s-0.087-0.041-0.111-0.080c-0.050-0.082-0.019-0.187 0.069-0.233l0.846-0.447c0.028-0.015 0.059-0.022 0.090-0.022 0.016 0 0.033 0.002 0.049 0.006 0.047 0.012 0.087 0.041 0.111 0.080 0.050 0.082 0.019 0.187-0.069 0.233l-0.846 0.447zM31.347 22.658c-0.013 0.044-0.044 0.081-0.086 0.103 0 0 0 0-0 0l-0.845 0.447c-0.038 0.021-0.081 0.024-0.122 0.018-0.052-0.009-0.101-0.036-0.129-0.082-0.050-0.082-0.019-0.187 0.069-0.233l0.846-0.447c0.028-0.014 0.059-0.022 0.090-0.022 0.005 0 0.010 0.002 0.015 0.002 0.011 0.001 0.023 0.002 0.034 0.004 0.048 0.012 0.087 0.041 0.111 0.081s0.030 0.085 0.017 0.13zM20.551 31.361l-0.18-3.894c-0.001-0.010-0.002-0.020-0.005-0.031l-1.761-6.865c-0.006-0.026-0.020-0.049-0.038-0.070-0.048-0.057-0.131-0.094-0.224-0.094h-8.492c-0.093 0-0.176 0.037-0.224 0.094-0.018 0.021-0.032 0.044-0.038 0.070l-1.546 6.030-0.241-0.126c-0.051-0.026-0.102-0.047-0.152-0.068l1.52-5.928c0.035-0.138 0.123-0.255 0.242-0.338 0.064-0.044 0.137-0.078 0.215-0.1v-4.014c-0.754-0.227-1.614-0.035-2.17 0.555l-6.948 7.366c-0.385 0.409-0.565 0.951-0.493 1.49s0.389 1.025 0.87 1.333l3.986 2.555c0.124 0.080 0.256 0.14 0.391 0.191 0.163 0.174 0.357 0.323 0.577 0.437l1.815 0.941c0.004 0.002 0.008 0.002 0.011 0.004l-0.022 0.464-0.020 0.431c-0.003 0.059 0.029 0.102 0.056 0.128 0.051 0.050 0.129 0.079 0.211 0.079h12.414c0.083 0 0.16-0.029 0.212-0.079 0.027-0.026 0.058-0.070 0.056-0.128l-0.020-0.431zM5.103 24.849l2.477-2.625v4.154c-0.081-0.031-0.163-0.055-0.244-0.076-0.048-0.037-0.089-0.078-0.141-0.112l-2.091-1.341zM9.953 28.41c-0.029 0.049-0.098 0.067-0.15 0.040-0 0-0 0-0 0l-1.469-0.761c-0.081-0.042-0.177-0.040-0.264-0.008-0.079 0.028-0.149 0.080-0.191 0.149s-0.053 0.152-0.029 0.229c0.023 0.077 0.079 0.142 0.154 0.181l0.001 0.001 1.759 0.912c0.034 0.018 0.047 0.046 0.052 0.061s0.010 0.046-0.009 0.078c-0.019 0.032-0.049 0.043-0.066 0.048s-0.050 0.009-0.084-0.009l-1.76-0.913c-0.036-0.018-0.075-0.027-0.114-0.030-0.070-0.005-0.14 0.015-0.203 0.049-0.006 0.003-0.012 0.006-0.018 0.009-0.048 0.030-0.092 0.066-0.12 0.112-0.042 0.070-0.052 0.152-0.029 0.229 0.020 0.066 0.067 0.119 0.126 0.159 0.010 0.007 0.017 0.016 0.028 0.022l1.469 0.761c0.034 0.018 0.047 0.046 0.052 0.062s0.010 0.045-0.009 0.078c-0.019 0.032-0.049 0.044-0.066 0.048s-0.049 0.009-0.084-0.009l-1.633-0.846c-0.102-0.053-0.259-0.032-0.359 0.025-0.097 0.056-0.155 0.156-0.152 0.262 0.002 0.056 0.022 0.108 0.053 0.154 0.028 0.041 0.066 0.077 0.113 0.101l1.125 0.583c0.034 0.018 0.047 0.046 0.052 0.061s0.010 0.046-0.009 0.078c-0.029 0.049-0.098 0.068-0.15 0.040l-1.815-0.941c-0.301-0.156-0.538-0.405-0.667-0.702-0.175-0.402-0.155-0.841 0.053-1.175 0.253-0.406 0.74-0.707 1.282-0.707 0.22 0 0.448 0.051 0.674 0.162 0.006 0.003 0.013 0.005 0.020 0.009l2.395 1.256c0.034 0.018 0.047 0.047 0.052 0.062s0.010 0.046-0.009 0.077zM17.943 26.919c-0.009 0.528-0.557 0.759-0.836 0.351l-0.281-0.41c-0.075 0.243-0.188 0.471-0.336 0.679 0.001 0.032 0.005 0.064 0.005 0.097 0 1.363-1.073 2.468-2.398 2.468s-2.398-1.105-2.398-2.468c0-0.033 0.003-0.064 0.005-0.097-0.147-0.208-0.261-0.436-0.336-0.679l-0.281 0.41c-0.279 0.408-0.827 0.177-0.837-0.351-0.004-0.247-0.014-0.503-0.031-0.754-0.061-0.881 1.229-1.295 1.81-1.436 0.517-0.346 1.251-0.501 2.068-0.501s1.551 0.156 2.068 0.501c0.581 0.141 1.871 0.555 1.81 1.436-0.018 0.251-0.027 0.507-0.032 0.754zM13.114 28.749c0-0.371 0.44-0.672 0.983-0.672s0.983 0.301 0.983 0.672c0 0.371-0.44 0.672-0.983 0.672s-0.983-0.301-0.983-0.672z"></path>
</symbol>
<symbol id="icon-nutrition-icon" viewBox="0 0 32 32">
<path d="M22.415 19.13c-0.748-0.148-1.489 0.341-1.801 1.188-0.061 0.164-0.102 0.334-0.126 0.507 0.772-0.462 1.447-1.018 2.030-1.674l-0.103-0.020z"></path>
<path d="M23.109 10.926c1.403-1.12 1.801-3.423 0.888-5.144s-2.791-2.208-4.194-1.088c-1.403 1.12-1.801 3.423-0.888 5.144s2.791 2.208 4.194 1.088z"></path>
<path d="M28.673 11.865c-1.311-1.991-3.092-2.014-4.075-1.202s-0.911 2.874-0.090 4.259c0.037 0.076 0.077 0.156 0.116 0.235 0.283-1.053 0.323-1.818 0.323-1.828 0.029-0.893 0.62-1.591 1.345-1.591 0.017 0 0.034 0 0.051 0.001 0.742 0.033 1.324 0.801 1.297 1.712v0.003l-0.001 0.015c-0.022 0.51-0.164 2.343-1.067 4.522-0.082 0.2-0.179 0.419-0.29 0.651 0.189 0.443 0.371 0.896 0.537 1.356l-1.149-0.226c-0.777 1.277-1.967 2.726-3.738 3.861l5.138 5.216c0.314 0.319 0.695 0.475 1.073 0.475 0.484 0 0.965-0.255 1.298-0.748 0.593-0.879 0.493-2.181-0.224-2.909l-1.236-1.255 0.4 0.079c0.124 0.024 0.246 0.030 0.367 0.022 0.29 0.017 0.632-0.107 1.051-0.287 1.166-0.498 2.488-1.377 2.144-4.055-0.694-3.597-1.482-5.555-3.271-8.306z"></path>
<path d="M26.332 17.84c0.97-2.342 1.033-4.28 1.039-4.402 0.022-0.73-0.442-1.343-1.037-1.37s-1.093 0.541-1.117 1.269l-0-0c-0.002 0.084-0.092 1.678-0.879 3.475-0.796 1.799-2.226 3.82-5.122 5.003-0.565 0.229-0.873 0.976-0.686 1.67 0.149 0.556 0.571 0.908 1.024 0.908 0.112 0 0.226-0.022 0.338-0.067 3.541-1.421 5.48-4.147 6.441-6.486z"></path>
<path d="M12.134 24.129c0.49 0.114 1.080 0.302 1.236 0.505 0.42 0.543 0.625 1.665 1.169 1.744 0.38 0.055 0.514 0.045 0.985-0.328 0.465-0.369 0.023-1.805-0.088-2.357-0.157-0.783 0.218-1.643 0.224-1.696 0.005-0.044 0.328-0.875 1.262-0.559 0.326 0.111 0.135-0.629-0.376-0.999-0.608-0.439-1.047-0.234-1.492 0.193-0.858-0.805-2.202-0.648-2.966-0.297-0.122 0.61-0.169 1.201-0.169 1.744-0 0.826 0.107 1.542 0.215 2.050zM14.312 22.392c0.2-0.167 0.472-0.104 0.609 0.141s0.084 0.579-0.115 0.746c-0.2 0.167-0.472 0.104-0.609-0.141s-0.085-0.579 0.115-0.746z"></path>
<path d="M11.538 20.316c-0.199 0.003-0.388-0.004-0.569-0.021-0.063-0.019-0.129-0.031-0.197-0.027-0.004 0-0.008 0.002-0.012 0.002-2.749-0.383-3.497-2.933-6.708-0.287-0.97-0.35-2.126-1.101-3.002-2.705-0.177-0.322-0.533-0.407-0.796-0.19-0.263 0.217-0.333 0.654-0.155 0.976 0.833 1.51 1.863 2.395 2.829 2.913-0.011 0.029-0.023 0.064-0.035 0.097-0.248 0.457-0.442 1.059-0.568 1.861-0.018 0.117-0.804 6.273 0.431 6.273s1.574-4.656 2.264-5.253c0.097 0.011 1.929 2.365 3.494 2.069 0.367-0.070 0.863-0.347 1.277-0.643l0.677 3.324c0.076 0.373 0.348 0.626 0.653 0.626 0.033 0 0.067-0.003 0.101-0.009 0.344-0.063 0.591-0.434 0.573-0.86l-0.176-4.139c-0.118-0.552-0.238-1.333-0.238-2.246 0-0.549 0.044-1.144 0.158-1.763z"></path>
<path d="M17.55 28.446h-0.17l-0.347-1.319h-3.889l-0.347 1.319h-0.17c-0.137 0-0.248 0.136-0.248 0.305s0.111 0.304 0.248 0.304h4.923c0.137 0 0.248-0.136 0.248-0.304s-0.111-0.305-0.248-0.305z"></path>
</symbol>
<symbol id="icon-training-icon" viewBox="0 0 32 32">
<path d="M6.231 25.595l1.154-3.878-0.42-1.144c-0.891-0.149-1.626-0.597-2.098-1.193l-1.573 5.221-3.094 5.221c-0.42 0.696-0.157 1.591 0.577 1.989s1.678 0.149 2.098-0.547l3.251-5.37c0.052-0.099 0.105-0.199 0.105-0.298z"></path>
<path d="M1.090 14.764c0.483 0.253 1.126 0.051 1.394-0.456l2.413-4.658 0.429-0.304 0.215-1.266c0.107-0.658 0.429-1.266 0.858-1.772l-2.896 1.772c-0.161 0.101-0.268 0.253-0.375 0.405l-2.521 4.911c-0.268 0.506-0.054 1.114 0.483 1.367z"></path>
<path d="M10.338 5.408c1.631 0 2.954-1.211 2.954-2.704s-1.322-2.704-2.954-2.704c-1.631 0-2.954 1.211-2.954 2.704s1.322 2.704 2.954 2.704z"></path>
<path d="M28.969 25.591c0 0 0.052 0.050 0.052 0.1 0.418-0.249 0.575-0.797 0.575-0.797 1.569 0.448 1.883-0.946 1.883-0.946 0.209-0.398-0.837-0.797-0.837-0.797-0.052-0.996-1.255-1.295-1.255-1.295-0.575-0.498-0.418 0-0.418 0-0.575-0.050-0.942 0.149-0.942 0.149-0.942-0.847-1.517 0.448-1.517 0.448-0.157 0-0.262 0.050-0.418 0.050 0.942 1.195 1.935 2.241 2.877 3.088z"></path>
<path d="M30.429 28.782c-0.272-0.252-2.227-1.362-2.227-1.362 0.435-0.202 0.489-1.059 0.489-1.362-1.032-0.908-2.119-2.068-3.205-3.379-0.543 0.101-4.129 1.513-7.606 0.050-1.304-0.555-2.445 0.252-2.445 0.252-0.978 1.059-0.543 2.774-0.543 2.774l1.358-1.362c0.706-0.504 0.978-0.403 1.141-0.151 0.109 0.202 0.054 0.454-0.109 0.656-1.304 1.261-0.869 2.572-0.869 2.572l-1.847 1.513c-0.706 0.706 0.109 1.261 0.109 1.261 0.163-0.555 1.467-1.412 1.467-1.412-0.054 0.656 0.272 0.807 0.272 0.807 0.924-0.252 0.706-1.11 0.706-1.11 1.467-0.050 1.63-0.656 1.63-0.656 1.467 0.252 2.173-0.656 2.173-0.656 0.38 0.656 3.694 1.362 3.694 1.362 0.217 0.101 1.467 2.421 1.467 2.421 0.272 0.050 0.543 0.403 0.543 0.403 0.598 0.353 1.847-0.050 1.847-0.050-0.109-0.454-0.761-0.454-0.761-0.454-1.467 0-1.25-2.27-1.25-2.27 0.054-0.303 1.195 0.252 1.195 0.252l2.499 0.857c1.25 0.605 1.793-0.101 1.793-0.101 0.38-0.555-1.521-0.857-1.521-0.857z"></path>
<path d="M18.215 11.014c1.241 2.511 3.885 7.484 7.283 11.521 0.162-0.049 0.378-0.049 0.593-0.098-0.054-0.049-0.108-0.098-0.162-0.197-3.399-3.988-6.043-8.961-7.23-11.423-0.216 0.148-0.432 0.197-0.486 0.197z"></path>
<path d="M18.48 10.434c0.543-0.2 0.869-0.748 0.652-1.247s-0.814-0.798-1.357-0.599l-2.932 0.948c-3.421-2.944-3.584-3.443-4.941-3.642-1.738-0.249-3.367 0.898-3.638 2.495l-1.303 8.382c-0.271 1.597 0.977 3.093 2.715 3.343 0.054 0 0.109 0 0.163 0l1.412 3.892-2.878 3.892c-0.489 0.649-0.326 1.597 0.434 2.046 0.706 0.449 1.738 0.299 2.226-0.399l3.366-4.49c0.271-0.399 0.38-0.848 0.217-1.297l-1.792-4.939c0.271-0.349 0.489-0.798 0.543-1.247l1.195-7.434 1.357 1.197c0.271 0.249 0.706 0.349 1.086 0.2l3.475-1.098z"></path>
</symbol>
<symbol id="icon-bathing-icon" viewBox="0 0 32 32">
<path d="M22.772 14.919c-0.2-0.463-0.549-1.030-1.247-1.493-0.399-0.257-1.945-0.463-1.995 0.978 0 0-0.648 0.103-0.599 0.566 0 0-0.399 1.39 1.496 1.236 0 0 0.349 2.625 0.648 3.192 0 0 0.15 0.515 0.2 1.030h0.798l0.050-1.030c0 0 0.449 0.309 0.798 1.030h1.147c-0.050-0.412-0.1-0.772-0.2-1.030 0 0 1.696 0 2.294-0.772 0 0 0.499 0.978 1.097 1.030v0.824h0.798c0.050-0.154 0.050-0.309 0.1-0.566 0 0 0.299 0.154 0.449 0.566h0.698c-0.1-0.36-0.998-3.707-1.297-3.964 0 0 0.449-0.051 0.599 0.515 0 0 0.249 1.184 0.748 1.133 0 0 0.349-0.772-0.249-1.75 0 0-0.249-0.721-1.546-0.618l-3.741-0.103c-0.499-0.103-0.848-0.412-1.047-0.772z"></path>
<path d="M18.233 10.955c0.299-0.412 0.249-1.030-0.15-1.39-0.399-0.309-0.998-0.257-1.347 0.154-0.948 1.236-2.644 1.441-3.841 0.927l-0.648 1.853c2.045 0.824 4.539 0.412 5.986-1.544z"></path>
<path d="M9.753 7.712c1.35 0 2.444-1.129 2.444-2.522s-1.094-2.523-2.444-2.523-2.444 1.129-2.444 2.523c0 1.393 1.094 2.522 2.444 2.522z"></path>
<path d="M11.2 20.994l-2.095-0.875 1.247-3.655c-2.793-1.596-3.791-4.118-3.841-4.273-0.299-0.772 0.050-1.596 0.798-1.905s1.546 0.051 1.846 0.824c0.050 0.103 0.648 1.441 2.195 2.523l0.948-2.677c0.1-0.309 0.050-0.618-0.15-0.875-1.796-2.059-3.891-2.831-6.185-2.111-0.648 0.206-1.097 0.721-1.247 1.39l-1.995 10.708c0 0.052 0 0.052 0 0.103s0 0.154 0 0.206l0.1 4.891-1.097-0.257c-0.748-0.154-1.546 0.36-1.696 1.133s0.349 1.596 1.097 1.75l2.843 0.618c0.449 0.103 0.848 0 1.197-0.309s0.549-0.721 0.499-1.184l-0.1-5.148 3.641 1.493v4.479c0 0.824 0.648 1.493 1.447 1.493s1.447-0.669 1.447-1.493v-5.457c0.050-0.618-0.349-1.133-0.898-1.39z"></path>
<path d="M15.041 15.382c-4.739-0.36-6.235-3.912-6.285-4.067-0.2-0.515-0.748-0.721-1.247-0.515s-0.698 0.772-0.499 1.287c0.1 0.206 1.995 4.839 7.931 5.302 0.549 0.051 0.998-0.36 0.998-0.927s-0.349-1.030-0.898-1.081z"></path>
<path d="M23.57 8.69c-0.998 0.206-1.746 1.133-1.746 2.214h4.439c0-1.184-0.848-2.111-1.945-2.265-1.496-1.699-3.891-1.030-5.786 0.669 0.1 0.103 0.2 0.257 0.299 0.412 1.347-1.287 3.192-2.162 4.739-1.030z"></path>
<path d="M31.152 20.891h-14.016c-0.399 0-0.748 0.36-0.748 0.772s0.349 0.772 0.748 0.772h0.15v1.287c0 2.008 1.596 3.655 3.542 3.655h6.734c1.945 0 3.541-1.647 3.541-3.655v-1.287h0.15c0.399 0 0.748-0.36 0.748-0.772-0.1-0.463-0.449-0.772-0.848-0.772z"></path>
<path d="M22.223 11.933l0.050-0.463c0-0.154-0.050-0.257-0.2-0.257s-0.249 0.052-0.249 0.206l-0.050 0.463c0 0.154 0.050 0.257 0.2 0.257 0.1 0 0.2-0.103 0.249-0.206z"></path>
<path d="M21.625 12.551l-0.050 0.463c0 0.154 0.050 0.257 0.2 0.257s0.249-0.052 0.249-0.206l0.050-0.463c0-0.154-0.050-0.257-0.2-0.257-0.1 0-0.2 0.103-0.249 0.206z"></path>
<path d="M23.321 12.139c0.15 0 0.249-0.103 0.249-0.257v-0.515c0-0.154-0.1-0.257-0.249-0.257s-0.249 0.103-0.249 0.257v0.515c0 0.103 0.15 0.257 0.249 0.257z"></path>
<path d="M23.021 13.066c0 0.154 0.1 0.257 0.249 0.257s0.249-0.103 0.249-0.257v-0.515c0-0.154-0.1-0.257-0.249-0.257s-0.249 0.103-0.249 0.257v0.515z"></path>
<path d="M24.668 11.161c-0.15 0-0.249 0.103-0.249 0.257v0.515c0 0.154 0.1 0.257 0.249 0.257s0.249-0.103 0.249-0.257v-0.515c0-0.154-0.1-0.257-0.249-0.257z"></path>
<path d="M24.518 12.602v0.515c0 0.154 0.1 0.257 0.249 0.257s0.249-0.103 0.249-0.257v-0.515c0-0.154-0.1-0.257-0.249-0.257-0.2 0-0.299 0.103-0.249 0.257z"></path>
<path d="M25.964 11.161c-0.15 0-0.2 0.154-0.2 0.257l0.050 0.463c0 0.103 0.1 0.206 0.249 0.206s0.249-0.154 0.249-0.309l-0.1-0.412c0-0.154-0.15-0.257-0.249-0.206z"></path>
<path d="M25.915 12.654l0.050 0.463c0 0.103 0.15 0.206 0.249 0.206 0.15 0 0.249-0.154 0.2-0.257v-0.515c0-0.154-0.15-0.206-0.249-0.206-0.15 0.051-0.249 0.154-0.249 0.309z"></path>
</symbol>
<symbol id="icon-more-services-arrow" viewBox="0 0 87 32">
<path fill="#ff9f0e" style="fill: var(--color3, #ff9f0e)" d="M86.842 17.218c0.833-0.833 0.833-2.184 0-3.017l-13.577-13.576c-0.833-0.833-2.184-0.833-3.017 0s-0.833 2.184 0 3.017l12.068 12.068-12.068 12.068c-0.833 0.833-0.833 2.184 0 3.017s2.184 0.833 3.017 0l13.577-13.576zM0 17.843h85.333v-4.267h-85.333v4.267z"></path>
</symbol>
<symbol id="icon-slider-arrow" viewBox="0 0 36 32">
<path fill="#fff" style="fill: var(--color6, #fff)" d="M0.625 17.218c-0.833-0.833-0.833-2.184 0-3.017l13.576-13.576c0.833-0.833 2.184-0.833 3.017 0s0.833 2.184 0 3.017l-12.068 12.068 12.068 12.068c0.833 0.833 0.833 2.184 0 3.017s-2.184 0.833-3.017 0l-13.576-13.576zM36.267 15.71v2.133h-34.133v-4.267h34.133v2.133z"></path>
</symbol>
<symbol id="icon-bone-icon" viewBox="0 0 73 32">
<path d="M72.673 13.749c0.834-1.892 0.379-4.677 0-6.753-0.295-1.765-1.027-3.222-2.124-4.502s-2.718-1.886-4.247-2.251c-1.214-0.314-3.038-0.336-4.247 0s-1.168 1.335-2.124 2.251c-2.383 2.173-5.455 2.326-8.494 2.251h-29.731c-3.039 0.076-6.112-0.078-8.494-2.251-0.956-0.916-0.914-1.915-2.124-2.251s-3.034-0.314-4.247 0c-1.529 0.365-3.151 0.971-4.247 2.251s-1.828 2.737-2.124 4.502c-0.38 2.076-0.834 4.861 0 6.753 0.302 0.681 2.124 1.486 2.124 2.251s-1.821 1.57-2.124 2.251c-0.832 1.892-0.378 4.677 0 6.753 0.296 1.766 1.028 3.22 2.124 4.502s2.718 1.882 4.247 2.251c1.214 0.313 3.038 0.336 4.247 0s1.168-1.335 2.124-2.251c2.382-2.176 5.454-2.322 8.494-2.251h29.731c3.040-0.071 6.113 0.075 8.494 2.251 0.956 0.916 0.914 1.915 2.124 2.251s3.034 0.313 4.247 0c1.529-0.369 3.151-0.969 4.247-2.251s1.828-2.736 2.124-4.502c0.378-2.076 0.832-4.861 0-6.753-0.302-0.681-2.124-1.486-2.124-2.251s1.822-1.57 2.124-2.251z"></path>
</symbol>
<symbol id="icon-contacts-paw" viewBox="0 0 32 32">
<path fill="#fff" style="fill: var(--color6, #fff)" d="M21.149 15.422c1.953 2.349 5.221-1.079 5.22-3.537 2.229-3.987-1.949-6.633-4.365-2.928-2.416 1.247-3.644 5.918-0.855 6.465zM21.702 14.701c-2.603-0.264-1.006-4.357 0.621-5.267l0.078-0.399c2.090-3.277 5.344-0.982 3.254 2.296l-0.078 0.399c0.094 1.985-2.55 5.197-4.271 2.894l0.396 0.078z"></path>
<path fill="#fff" style="fill: var(--color6, #fff)" d="M13.884 10.958c1.951 2.36 5.296-1.465 5.298-3.936 2.234-4.011-1.976-6.494-4.443-2.529-2.418 1.256-3.644 5.918-0.855 6.465v0zM14.437 10.238c-2.603-0.263-1.007-4.35 0.621-5.267l0.078-0.399c2.094-3.297 5.348-1.001 3.254 2.296v0c0.092 1.995-2.63 5.607-4.349 3.293l0.396 0.078z"></path>
<path fill="#fff" style="fill: var(--color6, #fff)" d="M23.616 24.082c1.821 1.822 5.060 0.117 4.589-2.417 1.531-2.874-2.842-5.389-4.839-2.606-2.328 0.765-2.034 4.331 0.25 5.023v0zM24.169 23.362l-0.396-0.078c-1.818-0.601-1.858-3.362-0.089-3.748l0.396 0.078c1.393-2.169 4.725-0.273 3.332 1.896l-0.078 0.399c0.377 1.783-1.843 3.347-3.243 1.852l0.078-0.399z"></path>
<path fill="#fff" style="fill: var(--color6, #fff)" d="M5.049 13.128c1.821 1.822 5.060 0.117 4.589-2.417 1.531-2.875-2.842-5.389-4.839-2.606-2.328 0.765-2.034 4.332 0.25 5.023v0zM5.602 12.407l-0.396-0.078c-1.818-0.601-1.858-3.362-0.089-3.748l0.396 0.078c1.393-2.169 4.725-0.273 3.332 1.896l-0.078 0.399c0.377 1.783-1.843 3.347-3.243 1.852l0.078-0.399z"></path>
<path fill="#fff" style="fill: var(--color6, #fff)" d="M19.734 22.72c3.778-6.851-7.543-13.799-11.743-7.275-8.055 2.585-3.997 8.619 0.98 11.799 5.024 2.944 12.286 3.857 10.763-4.523zM18.941 22.565v0c1.428 7.627-4.863 6.81-9.418 3.958s-8.833-7.761-1.293-10.202l0.078-0.399c3.873-6.098 14.037 0.453 10.632 6.643z"></path>
</symbol>
<symbol id="icon-contacts-bone" viewBox="0 0 34 32">
<path fill="#fff" style="fill: var(--color6, #fff)" d="M28.457 7.813c-1.019-2.423-3.494-3.71-5.507-2.863-1.775 0.747-2.615 2.826-2.115 4.98l-10.704 4.503c-1.189-1.864-3.264-2.718-5.039-1.971-2.014 0.847-2.825 3.515-1.805 5.939 0.443 1.052 1.15 1.918 2.028 2.45-0.221 1.031-0.11 2.111 0.332 3.163 1.019 2.424 3.494 3.71 5.507 2.863 1.775-0.747 2.615-2.827 2.115-4.98l10.678-4.491c1.189 1.864 3.264 2.718 5.039 1.971 2.014-0.847 2.825-3.515 1.805-5.939-0.443-1.052-1.15-1.918-2.028-2.45 0.248-1.042 0.137-2.122-0.306-3.174zM27.614 12.258c0.771 0.276 1.424 0.94 1.773 1.769 0.63 1.499 0.133 3.134-1.112 3.658-1.219 0.513-2.708-0.212-3.365-1.699-0.201-0.478-0.667-0.695-1.064-0.528l-11.896 5.004c-0.397 0.167-0.528 0.672-0.367 1.13 0.591 1.478 0.107 3.070-1.139 3.594s-2.762-0.264-3.392-1.763c-0.349-0.829-0.366-1.76-0.024-2.504 0.118-0.237 0.091-0.526-0.017-0.781s-0.321-0.466-0.547-0.558c-0.771-0.276-1.424-0.94-1.773-1.769-0.63-1.499-0.133-3.134 1.112-3.658 1.219-0.513 2.708 0.212 3.365 1.699 0.201 0.478 0.667 0.695 1.064 0.528l11.949-5.026c0.397-0.167 0.528-0.672 0.367-1.13-0.591-1.478-0.107-3.070 1.139-3.594s2.762 0.264 3.392 1.763c0.349 0.829 0.366 1.76 0.024 2.504-0.118 0.237-0.091 0.526 0.017 0.781 0.054 0.277 0.268 0.488 0.494 0.58z"></path>
<path fill="#fff" style="fill: var(--color6, #fff)" d="M14.262 9.28c0.397-0.167 0.554-0.684 0.353-1.162l-0.952-2.264c-0.201-0.478-0.68-0.727-1.078-0.56s-0.554 0.684-0.353 1.162l0.952 2.264c0.201 0.478 0.68 0.727 1.078 0.56z"></path>
<path fill="#fff" style="fill: var(--color6, #fff)" d="M17.154 8.889c0.133 0.019 0.226 0.018 0.332-0.027 0.265-0.111 0.449-0.414 0.435-0.746l-0.064-2.375c-0.015-0.481-0.389-0.925-0.827-1.003-0.425-0.046-0.768 0.323-0.779 0.816l0.064 2.375c0.015 0.481 0.389 0.925 0.84 0.96z"></path>
<path fill="#fff" style="fill: var(--color6, #fff)" d="M10.859 11.049c0.267 0.263 0.572 0.322 0.837 0.211 0.106-0.045 0.199-0.121 0.251-0.218 0.264-0.336 0.208-0.913-0.138-1.293l-1.653-1.707c-0.333-0.348-0.838-0.361-1.128-0.013-0.264 0.336-0.208 0.913 0.138 1.293l1.693 1.727z"></path>
<path fill="#fff" style="fill: var(--color6, #fff)" d="M19.842 22.545c-0.397 0.167-0.554 0.684-0.353 1.162l0.952 2.264c0.201 0.478 0.68 0.727 1.078 0.56s0.554-0.684 0.353-1.162l-0.952-2.264c-0.201-0.478-0.68-0.727-1.078-0.56z"></path>
<path fill="#fff" style="fill: var(--color6, #fff)" d="M16.95 22.936c-0.425-0.046-0.768 0.323-0.779 0.816l0.064 2.375c0.015 0.481 0.389 0.925 0.827 1.003 0.133 0.019 0.226 0.018 0.332-0.027 0.265-0.111 0.449-0.414 0.435-0.746l-0.064-2.375c0.011-0.567-0.363-1.011-0.814-1.046z"></path>
<path fill="#fff" style="fill: var(--color6, #fff)" d="M23.245 20.776c-0.333-0.348-0.838-0.361-1.128-0.013-0.264 0.336-0.208 0.913 0.138 1.293l1.653 1.706c0.267 0.263 0.572 0.322 0.837 0.211 0.106-0.045 0.199-0.121 0.251-0.218 0.264-0.336 0.208-0.913-0.138-1.293l-1.613-1.686z"></path>
</symbol>
<symbol id="icon-contacts-collar" viewBox="0 0 21 32">
<path fill="#fff" style="fill: var(--color6, #fff)" d="M1.099 3.545c-5.955 1.717-11.464 6.442-9.904 11.856l2.286 7.93c1.56 5.414 8.753 6.529 14.708 4.813s11.464-6.442 9.904-11.856l-2.3-7.978c-1.547-5.366-8.739-6.482-14.695-4.765zM1.203 26.866c-3.515-0.324-6.085-1.846-6.646-3.793l-1.259-4.369c1.685 1.469 4.1 2.161 6.715 2.282-0.258 1.052-0.173 2.416 0.197 3.698 0.233 0.807 0.581 1.53 0.994 2.182zM-3.952 18.322c1.711-2.139 4.558-3.937 7.898-4.9s6.707-0.956 9.295-0.056c-1.597 1.952-4.313 3.815-7.912 4.852-3.585 1.085-6.877 0.953-9.281 0.104zM17.032 16.594c0.876 3.039-2.775 7.692-9.403 9.603-1.424 0.41-2.76 0.641-4.059 0.707-0.883 0.049-1.874-1.054-2.299-2.526-0.246-0.855-0.284-1.667-0.086-2.341 0.172-0.667 0.556-1.086 1.050-1.125 1.234-0.098 2.478-0.354 3.669-0.698 4.48-1.291 8.713-4.312 9.855-8.035l1.273 4.416zM14.221 11.901c-2.867-1.385-6.874-1.567-10.836-0.426s-7.257 3.429-8.947 6.128c-1.115-0.656-1.894-1.511-2.181-2.509-0.876-3.039 2.775-7.692 9.403-9.603s12.21 0.132 13.072 3.124c0.287 0.997 0.083 2.136-0.511 3.285z"></path>
<path fill="#fff" style="fill: var(--color6, #fff)" d="M3.401 25.152c0.357-0.103 0.494-0.718 0.305-1.374s-0.632-1.104-0.99-1.001c-0.357 0.103-0.494 0.718-0.305 1.374s0.632 1.104 0.99 1.001z"></path>
<path fill="#fff" style="fill: var(--color6, #fff)" d="M5.515 24.8c0.358-0.103 0.494-0.718 0.305-1.374s-0.632-1.104-0.99-1.001c-0.358 0.103-0.494 0.718-0.305 1.374s0.632 1.104 0.99 1.001z"></path>
<path fill="#fff" style="fill: var(--color6, #fff)" d="M7.614 24.298c0.357-0.103 0.494-0.718 0.305-1.374s-0.632-1.104-0.99-1.001c-0.357 0.103-0.494 0.718-0.305 1.374s0.632 1.104 0.99 1.001z"></path>
<path fill="#fff" style="fill: var(--color6, #fff)" d="M9.632 23.613c0.357-0.103 0.494-0.718 0.305-1.374s-0.632-1.104-0.99-1.001c-0.358 0.103-0.494 0.718-0.305 1.374s0.632 1.104 0.99 1.001z"></path>
</symbol>
<symbol id="icon-services-bg" viewBox="0 0 88 32">
<path fill="#fffaf3" style="fill: var(--color5, #fffaf3)" d="M20.378 1.489c-13.971-1.931-27.188 0.374-32.048 1.781l-1.412 26.899c10.21-1.643 38.787-2.749 72.016 0.676 34.384 3.544 25.542-2.027 45.187-3.869 1.115-4.624 12.043-17.666-2.886-23.706s-7.401-1.884-24.62-1.781c-12.921 0.804-42.266 1.931-56.237 0z"></path>
</symbol>
<symbol id="icon-form-name-icon" viewBox="0 0 32 32">
<path fill="#ff9f0e" style="fill: var(--color3, #ff9f0e)" d="M11.384 9.714c0-1.125 0.446-2.204 1.241-3s1.872-1.243 2.995-1.243c1.123 0 2.201 0.447 2.995 1.243s1.241 1.875 1.241 3-0.446 2.204-1.241 3c-0.794 0.796-1.872 1.243-2.995 1.243s-2.2-0.447-2.995-1.243c-0.794-0.796-1.241-1.875-1.241-3zM15.619 3.048c-1.765 0-3.458 0.702-4.706 1.953s-1.949 2.946-1.949 4.714 0.701 3.464 1.949 4.714c1.248 1.25 2.941 1.953 4.706 1.953s3.458-0.702 4.706-1.953c1.248-1.25 1.949-2.946 1.949-4.714s-0.701-3.464-1.949-4.714c-1.248-1.25-2.941-1.953-4.706-1.953zM5.333 22.442c0-0.964 0.382-1.889 1.063-2.571s1.604-1.065 2.567-1.065h13.311c0.963 0 1.886 0.383 2.567 1.065s1.063 1.607 1.063 2.571v0.274c-0.002 0.113-0.011 0.226-0.024 0.338-0.024 0.21-0.069 0.494-0.157 0.831-0.232 0.889-0.644 1.721-1.209 2.445-1.416 1.821-4.079 3.384-8.895 3.384s-7.478-1.564-8.895-3.384c-0.565-0.724-0.977-1.556-1.21-2.445-0.092-0.357-0.152-0.721-0.177-1.088-0.001-0.027-0.002-0.054-0.002-0.081v-0.028l-0.001-0.010v-0.236zM7.753 22.657v0.015c0.017 0.204 0.051 0.406 0.103 0.604 0.109 0.422 0.33 0.991 0.776 1.565 0.853 1.096 2.727 2.45 6.987 2.45s6.135-1.354 6.987-2.448c0.362-0.464 0.625-0.997 0.774-1.566 0.052-0.198 0.087-0.4 0.104-0.604l0.001-0.015v-0.216c0-0.321-0.128-0.63-0.354-0.857s-0.535-0.355-0.856-0.355h-13.312c-0.321 0-0.629 0.128-0.856 0.355s-0.354 0.536-0.354 0.857v0.216z"></path>
</symbol>
<symbol id="icon-form-pet-name-icon" viewBox="0 0 32 32">
<path fill="#ff9f0e" style="fill: var(--color3, #ff9f0e)" d="M6.467 29.333v-12.8l-0.367-0.367c-0.244-0.244-0.433-0.533-0.567-0.867s-0.2-0.678-0.2-1.033c0-0.355 0.067-0.694 0.2-1.016s0.322-0.606 0.567-0.851l4.367-4.4h5.333l5.333-5.333 2.733 2.733c0.889 0.889 1.578 1.894 2.067 3.016s0.733 2.317 0.733 3.584c0 1.267-0.244 2.461-0.733 3.584-0.489 1.122-1.178 2.127-2.067 3.016l-2.733 2.733v8h-14.667zM9.133 26.667h9.333v-6.433l3.5-3.5c0.644-0.645 1.144-1.367 1.5-2.167s0.533-1.655 0.533-2.567c0-0.889-0.184-1.733-0.551-2.533s-0.86-1.522-1.483-2.167l-0.833-0.867-4.233 4.233h-5.333l-0.767 0.767 2.233 2.233c0.622 0.622 1.106 1.339 1.451 2.149s0.516 1.662 0.516 2.551-0.167 1.739-0.5 2.551c-0.333 0.811-0.822 1.538-1.467 2.183l-3.9-3.9v7.467z"></path>
</symbol>
<symbol id="icon-form-phone-icon" viewBox="0 0 32 32">
<path fill="#ff9f0e" style="fill: var(--color3, #ff9f0e)" d="M27.833 29.333c-3.467 0-6.727-0.656-9.783-1.967s-5.723-3.105-8-5.383c-2.278-2.278-4.078-4.945-5.4-8s-1.984-6.329-1.984-9.817c-0.022-0.4 0.111-0.75 0.4-1.051s0.644-0.449 1.067-0.449h5.2c0.4 0 0.744 0.15 1.033 0.449s0.433 0.662 0.433 1.084c0 0.978 0.067 1.9 0.2 2.767s0.344 1.689 0.633 2.467c0.111 0.244 0.133 0.494 0.067 0.749s-0.2 0.495-0.4 0.717l-3.333 3.333c0.956 1.955 2.311 3.811 4.067 5.567s3.645 3.155 5.667 4.2l3.333-3.333c0.2-0.2 0.433-0.333 0.7-0.4s0.533-0.044 0.8 0.067c0.822 0.267 1.672 0.472 2.549 0.616s1.784 0.217 2.717 0.217c0.422 0 0.784 0.156 1.084 0.467 0.299 0.311 0.449 0.689 0.449 1.133v5.1c0 0.4-0.144 0.744-0.433 1.033s-0.645 0.433-1.067 0.433zM20.167 25.333c1 0.378 2.044 0.678 3.133 0.9s2.211 0.367 3.367 0.433v-2.867c-0.689-0.044-1.394-0.122-2.116-0.233-0.723-0.111-1.44-0.278-2.151-0.5l-2.233 2.267zM26.667 16c0-2.978-1.033-5.5-3.1-7.567s-4.589-3.1-7.567-3.1v-2.667c1.844 0 3.578 0.35 5.2 1.049s3.033 1.651 4.233 2.851 2.15 2.611 2.849 4.233c0.7 1.622 1.051 3.355 1.051 5.2h-2.667zM21.333 16c0-1.467-0.522-2.722-1.567-3.767s-2.3-1.567-3.767-1.567v-2.667c2.222 0 4.111 0.778 5.667 2.333s2.333 3.444 2.333 5.667h-2.667zM6.667 11.767l2.2-2.233c-0.178-0.644-0.328-1.322-0.451-2.033s-0.205-1.433-0.249-2.167h-2.8c0.044 1.067 0.178 2.133 0.4 3.2s0.522 2.144 0.9 3.233z"></path>
</symbol>
<symbol id="icon-form-email-icon" viewBox="0 0 32 32">
<path fill="#ff9f0e" style="fill: var(--color3, #ff9f0e)" d="M16 29.333c-1.822 0-3.544-0.35-5.167-1.051s-3.039-1.655-4.249-2.867c-1.212-1.211-2.167-2.627-2.867-4.249s-1.051-3.344-1.051-5.167c0-1.845 0.35-3.572 1.051-5.183s1.655-3.023 2.867-4.233c1.211-1.212 2.627-2.168 4.249-2.868s3.345-1.049 5.167-1.049c1.844 0 3.572 0.35 5.183 1.049s3.023 1.656 4.233 2.868c1.212 1.211 2.167 2.622 2.867 4.233s1.051 3.338 1.051 5.183v1.933c0 1.311-0.45 2.427-1.349 3.349-0.901 0.923-2.006 1.384-3.317 1.384-0.8 0-1.544-0.178-2.233-0.533s-1.256-0.822-1.7-1.4c-0.6 0.6-1.305 1.072-2.116 1.417s-1.684 0.516-2.617 0.516c-1.845 0-3.416-0.65-4.716-1.951s-1.951-2.872-1.951-4.716c0-1.845 0.65-3.417 1.951-4.717s2.872-1.949 4.716-1.949c1.844 0 3.417 0.65 4.717 1.949s1.949 2.873 1.949 4.717v1.933c0 0.644 0.2 1.15 0.6 1.516s0.867 0.551 1.4 0.551c0.533 0 1-0.184 1.4-0.551s0.6-0.872 0.6-1.516v-1.933c0-2.911-1.050-5.417-3.151-7.517s-4.605-3.149-7.516-3.149-5.417 1.050-7.517 3.149c-2.1 2.1-3.149 4.606-3.149 7.517s1.050 5.416 3.149 7.516c2.1 2.1 4.606 3.151 7.517 3.151h6.667v2.667h-6.667zM16 20c1.111 0 2.055-0.389 2.833-1.167s1.167-1.722 1.167-2.833c0-1.111-0.389-2.056-1.167-2.833s-1.722-1.167-2.833-1.167c-1.111 0-2.056 0.389-2.833 1.167s-1.167 1.722-1.167 2.833c0 1.111 0.389 2.056 1.167 2.833s1.722 1.167 2.833 1.167z"></path>
</symbol>
<symbol id="icon-checkbox-icon" viewBox="0 0 32 32">
<path fill="none" stroke="#839aa9" style="stroke: var(--color1, #839aa9)" stroke-linejoin="miter" stroke-linecap="butt" stroke-miterlimit="4" stroke-width="2" d="M4 1h24c1.657 0 3 1.343 3 3v24c0 1.657-1.343 3-3 3h-24c-1.657 0-3-1.343-3-3v-24c0-1.657 1.343-3 3-3z"></path>
</symbol>
<symbol id="icon-instagram-icon" viewBox="0 0 32 32">
<path fill="none" stroke="#ff9f0e" style="stroke: var(--color3, #ff9f0e)" stroke-linejoin="round" stroke-linecap="round" stroke-miterlimit="4" stroke-width="2.1" d="M16 21.333c1.414 0 2.771-0.562 3.771-1.562s1.562-2.357 1.562-3.771c0-1.414-0.562-2.771-1.562-3.771s-2.357-1.562-3.771-1.562-2.771 0.562-3.771 1.562c-1 1-1.562 2.357-1.562 3.771s0.562 2.771 1.562 3.771c1 1 2.357 1.562 3.771 1.562z"></path>
<path fill="none" stroke="#ff9f0e" style="stroke: var(--color3, #ff9f0e)" stroke-linejoin="miter" stroke-linecap="butt" stroke-miterlimit="4" stroke-width="2.1" d="M4 21.333v-10.667c0-1.768 0.702-3.464 1.953-4.714s2.946-1.953 4.714-1.953h10.667c1.768 0 3.464 0.702 4.714 1.953s1.953 2.946 1.953 4.714v10.667c0 1.768-0.702 3.464-1.953 4.714s-2.946 1.953-4.714 1.953h-10.667c-1.768 0-3.464-0.702-4.714-1.953s-1.953-2.946-1.953-4.714z"></path>
<path fill="none" stroke="#ff9f0e" style="stroke: var(--color3, #ff9f0e)" stroke-linejoin="round" stroke-linecap="round" stroke-miterlimit="4" stroke-width="2.1" d="M23.333 8.681l0.014-0.015"></path>
</symbol>
<symbol id="icon-facebook-icon" viewBox="0 0 32 32">
<path fill="#ff9f0e" style="fill: var(--color3, #ff9f0e)" d="M29 16c0-2.571-0.762-5.085-2.191-7.222s-3.459-3.804-5.834-4.788c-2.375-0.984-4.989-1.241-7.511-0.74s-4.838 1.74-6.656 3.558c-1.818 1.818-3.056 4.134-3.558 6.656s-0.244 5.136 0.74 7.511c0.984 2.375 2.65 4.406 4.788 5.834s4.651 2.191 7.222 2.191c3.447-0.003 6.752-1.374 9.189-3.811s3.808-5.742 3.811-9.189zM17 26.95v-7.95h3c0.265 0 0.52-0.105 0.707-0.293s0.293-0.442 0.293-0.707c0-0.265-0.105-0.52-0.293-0.707s-0.442-0.293-0.707-0.293h-3v-3c0-0.53 0.211-1.039 0.586-1.414s0.884-0.586 1.414-0.586h2c0.265 0 0.52-0.105 0.707-0.293s0.293-0.442 0.293-0.707c0-0.265-0.105-0.52-0.293-0.707s-0.442-0.293-0.707-0.293h-2c-1.060 0.003-2.075 0.426-2.825 1.175s-1.172 1.765-1.175 2.825v3h-3c-0.265 0-0.52 0.105-0.707 0.293s-0.293 0.442-0.293 0.707c0 0.265 0.105 0.52 0.293 0.707s0.442 0.293 0.707 0.293h3v7.95c-2.819-0.257-5.43-1.592-7.291-3.725s-2.827-4.902-2.698-7.73c0.129-2.828 1.343-5.497 3.389-7.453s4.768-3.047 7.599-3.047 5.552 1.091 7.599 3.047c2.047 1.956 3.261 4.625 3.389 7.453s-0.838 5.596-2.698 7.73-4.472 3.468-7.291 3.725z"></path>
</symbol>
<symbol id="icon-close-btn" viewBox="0 0 32 32">
<path stroke-linejoin="miter" stroke-linecap="round" stroke-miterlimit="4" stroke-width="4.5714" d="M2.286 2.286l13.714 13.714 13.714-13.714"></path>
<path stroke-linejoin="miter" stroke-linecap="round" stroke-miterlimit="4" stroke-width="4.5714" d="M2.286 29.714l13.714-13.714 13.714 13.714"></path>
</symbol>
<symbol id="icon-burger-icon" viewBox="0 0 32 32">
<path fill="#ff9f0e" style="fill: var(--color3, #ff9f0e)" d="M29.333 24.007c0 0.733-0.595 1.327-1.327 1.327h-10.68c-0.352 0-0.689-0.14-0.938-0.389s-0.389-0.586-0.389-0.938c0-0.352 0.14-0.689 0.389-0.938s0.586-0.389 0.938-0.389h10.68c0.733 0 1.327 0.593 1.327 1.327zM29.333 16c0 0.733-0.595 1.327-1.327 1.327h-24.013c-0.352 0-0.689-0.14-0.938-0.389s-0.389-0.586-0.389-0.938c0-0.352 0.14-0.689 0.389-0.938s0.586-0.389 0.938-0.389h24.013c0.733 0 1.327 0.595 1.327 1.327zM28.007 9.32c0.352 0 0.689-0.14 0.938-0.389s0.389-0.586 0.389-0.938c0-0.352-0.14-0.689-0.389-0.938s-0.586-0.389-0.938-0.389h-16.013c-0.174 0-0.347 0.034-0.508 0.101s-0.307 0.164-0.43 0.288c-0.123 0.123-0.221 0.269-0.288 0.43s-0.101 0.333-0.101 0.508c0 0.174 0.034 0.347 0.101 0.508s0.164 0.307 0.288 0.43c0.123 0.123 0.269 0.221 0.43 0.288s0.333 0.101 0.508 0.101h16.013z"></path>
</symbol>
<symbol id="icon-sorting-arrows" viewBox="0 0 30 32">
<path fill="#ff9f0e" style="fill: var(--color3, #ff9f0e)" d="M7.596 0.276c-0.368-0.368-0.963-0.368-1.331 0l-5.99 5.99c-0.368 0.368-0.368 0.963 0 1.331s0.963 0.368 1.331 0l5.324-5.324 5.324 5.324c0.368 0.368 0.963 0.368 1.331 0s0.368-0.963 0-1.331l-5.99-5.99zM5.989 0.941v30.118h1.882v-30.118h-1.882z"></path>
<path fill="#ff9f0e" style="fill: var(--color3, #ff9f0e)" d="M21.324 31.724c0.368 0.367 0.964 0.367 1.331 0l5.99-5.99c0.368-0.368 0.368-0.964 0-1.331s-0.963-0.368-1.331 0l-5.324 5.324-5.324-5.324c-0.368-0.368-0.963-0.368-1.331 0s-0.368 0.963 0 1.331l5.99 5.99zM21.048 0.941v30.118h1.882v-30.118h-1.882z"></path>
</symbol>
<symbol id="icon-slider-nutrition-arrow" viewBox="0 0 32 32">
<path d="M22.467 28.133c0.333-0.333 0.5-0.728 0.5-1.184s-0.167-0.849-0.5-1.183l-9.767-9.767 9.8-9.8c0.311-0.311 0.467-0.7 0.467-1.167s-0.167-0.867-0.5-1.2c-0.333-0.333-0.728-0.5-1.184-0.5s-0.849 0.167-1.183 0.5l-11.2 11.233c-0.133 0.133-0.228 0.278-0.284 0.433s-0.083 0.322-0.083 0.5 0.028 0.344 0.083 0.5c0.056 0.156 0.151 0.3 0.284 0.433l11.233 11.233c0.311 0.311 0.694 0.467 1.149 0.467s0.851-0.167 1.184-0.5z"></path>
</symbol>
<symbol id="icon-star-icon" viewBox="0 0 34 32">
<path d="M16.231 0l3.832 11.793h12.4l-10.032 7.288 3.832 11.793-10.032-7.288-10.032 7.288 3.832-11.793-10.032-7.288h12.4l3.832-11.793z"></path>
</symbol>
</defs>
</svg>
